<?xml version="1.0"?>

<svg version="1.1" xmlns="http://www.w3.org/2000/svg" xmlns:xlink="http://www.w3.org/1999/xlink" x="0px" y="0px" viewBox="0 0 301.01 83.94" style="enable-background:new 0 0 301.01 83.94;" xml:space="preserve">

<g id="Capa_1" class="st0">
&#x9;<line class="st1" x1="158.32" y1="67.16" x2="335.89" y2="67.16"></line>
&#x9;<line class="st1" x1="160.32" y1="36.32" x2="335.81" y2="36.32"></line>
&#x9;<line class="st1" x1="159.75" y1="51.27" x2="335.98" y2="51.27"></line>
&#x9;<line class="st1" x1="159.87" y1="57.47" x2="336.09" y2="57.47"></line>
&#x9;<line class="st1" x1="159.93" y1="60.99" x2="336.01" y2="60.99"></line>
&#x9;<line class="st1" x1="159.95" y1="46.39" x2="335.75" y2="46.39"></line>
&#x9;<line class="st5" x1="0.29" y1="83.77" x2="160.19" y2="83.78"></line>
&#x9;<g class="st7">
&#x9;&#x9;<line class="st9" x1="158.37" y1="0.02" x2="158.37" y2="83.81"></line>
&#x9;&#x9;<line class="st10" x1="151.3" y1="0.02" x2="151.3" y2="83.81"></line>
&#x9;&#x9;<line class="st9" x1="144.21" y1="0.02" x2="144.21" y2="83.81"></line>
&#x9;&#x9;<path class="st8" d="M147.77,46.05c-1.1,0-1.97-0.27-2.59-0.8c-0.63-0.54-0.94-1.34-0.94-2.41v-4.75c0-0.09,0.03-0.16,0.08-0.22&#xA;&#x9;&#x9;&#x9;c0.05-0.06,0.12-0.09,0.21-0.09h1.6c0.09,0,0.16,0.03,0.22,0.09c0.06,0.06,0.09,0.13,0.09,0.22v4.73c0,0.48,0.11,0.84,0.34,1.08&#xA;&#x9;&#x9;&#x9;c0.23,0.24,0.56,0.36,0.98,0.36c0.43,0,0.76-0.12,0.98-0.37c0.23-0.24,0.34-0.6,0.34-1.08v-4.73c0-0.09,0.03-0.16,0.09-0.22&#xA;&#x9;&#x9;&#x9;c0.06-0.06,0.13-0.09,0.22-0.09h1.58c0.09,0,0.16,0.03,0.22,0.09c0.06,0.06,0.09,0.13,0.09,0.22v4.75c0,1.07-0.31,1.88-0.93,2.41&#xA;&#x9;&#x9;&#x9;C149.72,45.78,148.87,46.05,147.77,46.05L147.77,46.05z"></path>
&#x9;&#x9;<path class="st8" d="M154.87,46.05c-1.1,0-1.97-0.27-2.59-0.8c-0.63-0.54-0.94-1.34-0.94-2.41v-4.75c0-0.09,0.03-0.16,0.08-0.22&#xA;&#x9;&#x9;&#x9;c0.05-0.06,0.12-0.09,0.21-0.09h1.6c0.09,0,0.16,0.03,0.22,0.09c0.06,0.06,0.09,0.13,0.09,0.22v4.73c0,0.48,0.11,0.84,0.34,1.08&#xA;&#x9;&#x9;&#x9;c0.23,0.24,0.56,0.36,0.98,0.36c0.43,0,0.76-0.12,0.98-0.37c0.23-0.24,0.34-0.6,0.34-1.08v-4.73c0-0.09,0.03-0.16,0.09-0.22&#xA;&#x9;&#x9;&#x9;c0.06-0.06,0.13-0.09,0.22-0.09h1.58c0.09,0,0.16,0.03,0.22,0.09c0.06,0.06,0.09,0.13,0.09,0.22v4.75c0,1.07-0.31,1.88-0.93,2.41&#xA;&#x9;&#x9;&#x9;C156.82,45.78,155.97,46.05,154.87,46.05L154.87,46.05z"></path>
&#x9;</g>
&#x9;<line class="st11" x1="174.25" y1="0.03" x2="174.25" y2="83.82"></line>
&#x9;<line class="st12" x1="167.17" y1="0.03" x2="167.17" y2="83.82"></line>
&#x9;<line class="st11" x1="160.08" y1="0.03" x2="160.08" y2="83.82"></line>
&#x9;<g class="st7">
&#x9;&#x9;<line class="st9" x1="300.87" y1="-0.19" x2="300.87" y2="83.59"></line>
&#x9;&#x9;<g>
&#x9;&#x9;&#x9;<line class="st10" x1="293.79" y1="0.03" x2="293.79" y2="83.81"></line>
&#x9;&#x9;&#x9;<line class="st9" x1="286.7" y1="0.03" x2="286.7" y2="83.81"></line>
&#x9;&#x9;&#x9;<path class="st8" d="M292.19,59.3c0,0.55-0.13,0.98-0.4,1.3c-0.27,0.31-0.67,0.47-1.21,0.47h-2.38c-0.04,0-0.08-0.01-0.11-0.04&#xA;&#x9;&#x9;&#x9;&#x9;c-0.03-0.03-0.04-0.06-0.04-0.1v-0.8c0-0.04,0.01-0.08,0.04-0.11c0.03-0.03,0.07-0.04,0.11-0.04h2.37c0.24,0,0.42-0.06,0.54-0.17&#xA;&#x9;&#x9;&#x9;&#x9;c0.12-0.11,0.18-0.28,0.18-0.49c0-0.21-0.06-0.38-0.18-0.49c-0.12-0.11-0.3-0.17-0.54-0.17h-2.37c-0.04,0-0.08-0.01-0.11-0.04&#xA;&#x9;&#x9;&#x9;&#x9;c-0.03-0.03-0.04-0.07-0.04-0.11V57.7c0-0.04,0.01-0.08,0.04-0.11c0.03-0.03,0.07-0.04,0.11-0.04h2.38&#xA;&#x9;&#x9;&#x9;&#x9;c0.54,0,0.94,0.16,1.21,0.47C292.06,58.33,292.19,58.76,292.19,59.3L292.19,59.3z"></path>
&#x9;&#x9;&#x9;<g>
&#x9;&#x9;&#x9;&#x9;<path class="st8" d="M290.11,44.57c-1.1,0-1.97-0.27-2.59-0.8c-0.63-0.54-0.94-1.34-0.94-2.41v-4.75c0-0.09,0.03-0.16,0.08-0.22&#xA;&#x9;&#x9;&#x9;&#x9;&#x9;c0.05-0.06,0.12-0.09,0.21-0.09h1.6c0.09,0,0.16,0.03,0.22,0.09c0.06,0.06,0.09,0.13,0.09,0.22v4.73c0,0.48,0.11,0.84,0.34,1.08&#xA;&#x9;&#x9;&#x9;&#x9;&#x9;c0.23,0.24,0.56,0.36,0.98,0.36c0.43,0,0.76-0.12,0.98-0.37c0.23-0.24,0.34-0.6,0.34-1.08v-4.73c0-0.09,0.03-0.16,0.09-0.22&#xA;&#x9;&#x9;&#x9;&#x9;&#x9;c0.06-0.06,0.13-0.09,0.22-0.09h1.58c0.09,0,0.16,0.03,0.22,0.09c0.06,0.06,0.09,0.13,0.09,0.22v4.75&#xA;&#x9;&#x9;&#x9;&#x9;&#x9;c0,1.07-0.31,1.88-0.93,2.41C292.06,44.3,291.2,44.57,290.11,44.57L290.11,44.57z"></path>
&#x9;&#x9;&#x9;&#x9;<path class="st8" d="M291.47,45.47c0,0.28-0.07,0.49-0.2,0.65c-0.13,0.16-0.34,0.23-0.6,0.23h-1.19c-0.02,0-0.04-0.01-0.05-0.02&#xA;&#x9;&#x9;&#x9;&#x9;&#x9;c-0.01-0.01-0.02-0.03-0.02-0.05v-0.4c0-0.02,0.01-0.04,0.02-0.05c0.01-0.01,0.03-0.02,0.05-0.02h1.18&#xA;&#x9;&#x9;&#x9;&#x9;&#x9;c0.12,0,0.21-0.03,0.27-0.09c0.06-0.06,0.09-0.14,0.09-0.25c0-0.11-0.03-0.19-0.09-0.25c-0.06-0.06-0.15-0.09-0.27-0.09h-1.18&#xA;&#x9;&#x9;&#x9;&#x9;&#x9;c-0.02,0-0.04-0.01-0.05-0.02c-0.01-0.01-0.02-0.03-0.02-0.05v-0.4c0-0.02,0.01-0.04,0.02-0.05c0.01-0.01,0.03-0.02,0.05-0.02&#xA;&#x9;&#x9;&#x9;&#x9;&#x9;h1.19c0.27,0,0.47,0.08,0.6,0.23C291.4,44.98,291.47,45.19,291.47,45.47L291.47,45.47z"></path>
&#x9;&#x9;&#x9;</g>
&#x9;&#x9;&#x9;<g>
&#x9;&#x9;&#x9;&#x9;<path class="st8" d="M297.18,44.4c-1.1,0-1.97-0.27-2.59-0.8c-0.63-0.54-0.94-1.34-0.94-2.41v-4.75c0-0.09,0.03-0.16,0.08-0.22&#xA;&#x9;&#x9;&#x9;&#x9;&#x9;c0.05-0.06,0.12-0.09,0.21-0.09h1.6c0.09,0,0.16,0.03,0.22,0.09c0.06,0.06,0.09,0.13,0.09,0.22v4.73c0,0.48,0.11,0.84,0.34,1.08&#xA;&#x9;&#x9;&#x9;&#x9;&#x9;c0.23,0.24,0.56,0.36,0.98,0.36c0.43,0,0.76-0.12,0.98-0.37c0.23-0.24,0.34-0.6,0.34-1.08v-4.73c0-0.09,0.03-0.16,0.09-0.22&#xA;&#x9;&#x9;&#x9;&#x9;&#x9;c0.06-0.06,0.13-0.09,0.22-0.09h1.58c0.09,0,0.16,0.03,0.22,0.09c0.06,0.06,0.09,0.13,0.09,0.22v4.75&#xA;&#x9;&#x9;&#x9;&#x9;&#x9;c0,1.07-0.31,1.88-0.93,2.41C299.13,44.13,298.27,44.4,297.18,44.4L297.18,44.4z"></path>
&#x9;&#x9;&#x9;&#x9;<path class="st8" d="M298.54,45.3c0,0.28-0.07,0.49-0.2,0.65c-0.13,0.16-0.34,0.23-0.6,0.23h-1.19c-0.02,0-0.04-0.01-0.05-0.02&#xA;&#x9;&#x9;&#x9;&#x9;&#x9;c-0.01-0.01-0.02-0.03-0.02-0.05v-0.4c0-0.02,0.01-0.04,0.02-0.05c0.01-0.01,0.03-0.02,0.05-0.02h1.18&#xA;&#x9;&#x9;&#x9;&#x9;&#x9;c0.12,0,0.21-0.03,0.27-0.09c0.06-0.06,0.09-0.14,0.09-0.25c0-0.11-0.03-0.19-0.09-0.25c-0.06-0.06-0.15-0.09-0.27-0.09h-1.18&#xA;&#x9;&#x9;&#x9;&#x9;&#x9;c-0.02,0-0.04-0.01-0.05-0.02c-0.01-0.01-0.02-0.03-0.02-0.05v-0.4c0-0.02,0.01-0.04,0.02-0.05c0.01-0.01,0.03-0.02,0.05-0.02&#xA;&#x9;&#x9;&#x9;&#x9;&#x9;h1.19c0.27,0,0.47,0.08,0.6,0.23C298.47,44.81,298.54,45.03,298.54,45.3L298.54,45.3z"></path>
&#x9;&#x9;&#x9;</g>
&#x9;&#x9;&#x9;<g>
&#x9;&#x9;&#x9;&#x9;<path class="st13" d="M296.84,67.04c-0.06,0-0.12-0.02-0.16-0.06c-0.04-0.04-0.06-0.09-0.06-0.16v-4.56h-1.57&#xA;&#x9;&#x9;&#x9;&#x9;&#x9;c-0.07,0-0.12-0.02-0.16-0.07s-0.06-0.1-0.06-0.15V61.1c0-0.06,0.02-0.12,0.06-0.16c0.04-0.04,0.09-0.06,0.16-0.06h4.73&#xA;&#x9;&#x9;&#x9;&#x9;&#x9;c0.06,0,0.12,0.02,0.16,0.06c0.04,0.04,0.06,0.09,0.06,0.16v0.94c0,0.06-0.02,0.11-0.06,0.15s-0.09,0.07-0.16,0.07h-1.57v4.56&#xA;&#x9;&#x9;&#x9;&#x9;&#x9;c0,0.06-0.02,0.12-0.06,0.16s-0.09,0.06-0.16,0.06H296.84z"></path>
&#x9;&#x9;&#x9;</g>
&#x9;&#x9;&#x9;<g>
&#x9;&#x9;&#x9;&#x9;<path class="st13" d="M296.98,57.29c-0.06,0-0.12-0.02-0.16-0.06c-0.04-0.04-0.06-0.09-0.06-0.16v-4.56h-1.57&#xA;&#x9;&#x9;&#x9;&#x9;&#x9;c-0.07,0-0.12-0.02-0.16-0.07s-0.06-0.1-0.06-0.15v-0.94c0-0.06,0.02-0.12,0.06-0.16c0.04-0.04,0.09-0.06,0.16-0.06h4.73&#xA;&#x9;&#x9;&#x9;&#x9;&#x9;c0.06,0,0.12,0.02,0.16,0.06c0.04,0.04,0.06,0.09,0.06,0.16v0.94c0,0.06-0.02,0.11-0.06,0.15s-0.09,0.07-0.16,0.07h-1.57v4.56&#xA;&#x9;&#x9;&#x9;&#x9;&#x9;c0,0.06-0.02,0.12-0.06,0.16s-0.09,0.06-0.16,0.06H296.98z"></path>
&#x9;&#x9;&#x9;</g>
&#x9;&#x9;</g>
&#x9;</g>
</g>
<g id="Capa_5">
</g>
<g id="Capa_2">
&#x9;<g>
&#x9;&#x9;<g>
&#x9;&#x9;&#x9;<g>
&#x9;&#x9;&#x9;&#x9;<path class="st36" d="M174.47,57.46c-0.06,0-0.11-0.02-0.15-0.06s-0.06-0.09-0.06-0.15v-5.77c0-0.06,0.02-0.12,0.06-0.16&#xA;&#x9;&#x9;&#x9;&#x9;&#x9;c0.04-0.04,0.09-0.06,0.15-0.06h3.9c0.06,0,0.12,0.02,0.16,0.06c0.04,0.04,0.06,0.09,0.06,0.16v0.59c0,0.06-0.02,0.11-0.06,0.15&#xA;&#x9;&#x9;&#x9;&#x9;&#x9;c-0.04,0.04-0.09,0.06-0.16,0.06h-2.92v1.57h2.72c0.07,0,0.12,0.02,0.16,0.06c0.04,0.04,0.06,0.09,0.06,0.16v0.55&#xA;&#x9;&#x9;&#x9;&#x9;&#x9;c0,0.06-0.02,0.12-0.06,0.16c-0.04,0.04-0.09,0.06-0.16,0.06h-2.72v1.62h2.99c0.06,0,0.12,0.02,0.16,0.06&#xA;&#x9;&#x9;&#x9;&#x9;&#x9;c0.04,0.04,0.06,0.09,0.06,0.16v0.59c0,0.06-0.02,0.11-0.06,0.15s-0.09,0.06-0.16,0.06H174.47z"></path>
&#x9;&#x9;&#x9;&#x9;<path class="st36" d="M181.86,57.54c-0.55,0-1.01-0.08-1.38-0.24c-0.37-0.16-0.65-0.38-0.84-0.64&#xA;&#x9;&#x9;&#x9;&#x9;&#x9;c-0.19-0.26-0.29-0.54-0.31-0.83c0-0.05,0.02-0.1,0.05-0.13c0.04-0.04,0.08-0.05,0.13-0.05h0.79c0.08,0,0.13,0.02,0.17,0.05&#xA;&#x9;&#x9;&#x9;&#x9;&#x9;c0.04,0.03,0.07,0.07,0.1,0.12c0.04,0.11,0.1,0.22,0.2,0.33c0.1,0.11,0.24,0.2,0.41,0.27c0.17,0.07,0.39,0.11,0.66,0.11&#xA;&#x9;&#x9;&#x9;&#x9;&#x9;c0.43,0,0.74-0.07,0.95-0.21c0.21-0.14,0.31-0.33,0.31-0.58c0-0.17-0.06-0.31-0.17-0.41s-0.29-0.2-0.52-0.28&#xA;&#x9;&#x9;&#x9;&#x9;&#x9;c-0.23-0.09-0.54-0.18-0.93-0.27c-0.44-0.11-0.81-0.24-1.11-0.39c-0.3-0.15-0.52-0.34-0.67-0.57c-0.15-0.23-0.23-0.52-0.23-0.88&#xA;&#x9;&#x9;&#x9;&#x9;&#x9;c0-0.34,0.09-0.65,0.28-0.91c0.19-0.27,0.45-0.48,0.8-0.63s0.76-0.23,1.24-0.23c0.38,0,0.72,0.05,1.02,0.16&#xA;&#x9;&#x9;&#x9;&#x9;&#x9;c0.29,0.1,0.54,0.24,0.74,0.41c0.19,0.17,0.34,0.35,0.45,0.54c0.1,0.19,0.16,0.38,0.16,0.56c0,0.05-0.02,0.09-0.05,0.13&#xA;&#x9;&#x9;&#x9;&#x9;&#x9;c-0.03,0.04-0.08,0.06-0.14,0.06h-0.83c-0.05,0-0.09-0.01-0.14-0.04c-0.05-0.02-0.09-0.07-0.12-0.13&#xA;&#x9;&#x9;&#x9;&#x9;&#x9;c-0.04-0.18-0.15-0.34-0.35-0.47c-0.2-0.13-0.45-0.2-0.75-0.2c-0.32,0-0.58,0.06-0.77,0.18s-0.29,0.3-0.29,0.55&#xA;&#x9;&#x9;&#x9;&#x9;&#x9;c0,0.17,0.05,0.3,0.15,0.41s0.25,0.21,0.47,0.29c0.21,0.08,0.5,0.17,0.86,0.27c0.5,0.11,0.91,0.24,1.23,0.39&#xA;&#x9;&#x9;&#x9;&#x9;&#x9;c0.32,0.15,0.55,0.34,0.7,0.56s0.22,0.52,0.22,0.86c0,0.39-0.1,0.72-0.31,1s-0.5,0.49-0.88,0.63&#xA;&#x9;&#x9;&#x9;&#x9;&#x9;C182.8,57.47,182.36,57.54,181.86,57.54z"></path>
&#x9;&#x9;&#x9;&#x9;<path class="st36" d="M187.72,57.54c-0.55,0-1.02-0.1-1.4-0.29c-0.38-0.19-0.67-0.47-0.87-0.82c-0.2-0.36-0.31-0.79-0.34-1.29&#xA;&#x9;&#x9;&#x9;&#x9;&#x9;c-0.01-0.24-0.01-0.5-0.01-0.78c0-0.28,0-0.54,0.01-0.8c0.02-0.5,0.14-0.93,0.34-1.29c0.2-0.36,0.5-0.64,0.88-0.83&#xA;&#x9;&#x9;&#x9;&#x9;&#x9;c0.38-0.19,0.84-0.29,1.39-0.29c0.4,0,0.76,0.05,1.08,0.16s0.59,0.25,0.82,0.44c0.22,0.19,0.4,0.4,0.52,0.65&#xA;&#x9;&#x9;&#x9;&#x9;&#x9;c0.12,0.25,0.19,0.52,0.2,0.81c0.01,0.05-0.01,0.1-0.05,0.13c-0.04,0.04-0.08,0.05-0.14,0.05h-0.84c-0.07,0-0.12-0.02-0.16-0.05&#xA;&#x9;&#x9;&#x9;&#x9;&#x9;c-0.04-0.03-0.07-0.09-0.09-0.16c-0.09-0.39-0.26-0.66-0.49-0.8c-0.23-0.14-0.52-0.21-0.86-0.21c-0.4,0-0.71,0.11-0.95,0.33&#xA;&#x9;&#x9;&#x9;&#x9;&#x9;c-0.24,0.22-0.36,0.59-0.38,1.1c-0.02,0.48-0.02,0.98,0,1.49s0.15,0.87,0.38,1.1c0.24,0.22,0.55,0.33,0.95,0.33&#xA;&#x9;&#x9;&#x9;&#x9;&#x9;c0.34,0,0.63-0.07,0.86-0.22c0.23-0.15,0.39-0.41,0.49-0.79c0.02-0.08,0.05-0.14,0.09-0.17c0.04-0.03,0.09-0.04,0.16-0.04h0.84&#xA;&#x9;&#x9;&#x9;&#x9;&#x9;c0.05,0,0.1,0.02,0.14,0.05c0.04,0.04,0.05,0.08,0.05,0.13c-0.01,0.29-0.07,0.56-0.2,0.81c-0.12,0.25-0.3,0.47-0.52,0.65&#xA;&#x9;&#x9;&#x9;&#x9;&#x9;c-0.23,0.19-0.5,0.33-0.82,0.44S188.12,57.54,187.72,57.54z"></path>
&#x9;&#x9;&#x9;&#x9;<path class="st36" d="M193.79,57.54c-0.51,0-0.96-0.09-1.34-0.26s-0.67-0.44-0.88-0.81c-0.21-0.36-0.31-0.83-0.31-1.4v-3.61&#xA;&#x9;&#x9;&#x9;&#x9;&#x9;c0-0.06,0.02-0.12,0.06-0.16c0.04-0.04,0.09-0.06,0.15-0.06h0.81c0.06,0,0.12,0.02,0.15,0.06c0.04,0.04,0.06,0.09,0.06,0.16&#xA;&#x9;&#x9;&#x9;&#x9;&#x9;v3.61c0,0.48,0.12,0.84,0.35,1.08c0.23,0.23,0.55,0.35,0.95,0.35c0.4,0,0.72-0.12,0.94-0.35c0.23-0.23,0.34-0.59,0.34-1.08&#xA;&#x9;&#x9;&#x9;&#x9;&#x9;v-3.61c0-0.06,0.02-0.12,0.06-0.16c0.04-0.04,0.09-0.06,0.16-0.06h0.8c0.07,0,0.12,0.02,0.16,0.06&#xA;&#x9;&#x9;&#x9;&#x9;&#x9;c0.04,0.04,0.06,0.09,0.06,0.16v3.61c0,0.57-0.1,1.03-0.31,1.4c-0.2,0.36-0.49,0.63-0.87,0.81&#xA;&#x9;&#x9;&#x9;&#x9;&#x9;C194.76,57.46,194.31,57.54,193.79,57.54z"></path>
&#x9;&#x9;&#x9;&#x9;<path class="st36" d="M197.79,57.46c-0.06,0-0.11-0.02-0.15-0.06s-0.06-0.09-0.06-0.15v-5.77c0-0.06,0.02-0.12,0.06-0.16&#xA;&#x9;&#x9;&#x9;&#x9;&#x9;c0.04-0.04,0.09-0.06,0.15-0.06h3.9c0.06,0,0.12,0.02,0.16,0.06c0.04,0.04,0.06,0.09,0.06,0.16v0.59c0,0.06-0.02,0.11-0.06,0.15&#xA;&#x9;&#x9;&#x9;&#x9;&#x9;c-0.04,0.04-0.09,0.06-0.16,0.06h-2.92v1.57h2.72c0.07,0,0.12,0.02,0.16,0.06c0.04,0.04,0.06,0.09,0.06,0.16v0.55&#xA;&#x9;&#x9;&#x9;&#x9;&#x9;c0,0.06-0.02,0.12-0.06,0.16c-0.04,0.04-0.09,0.06-0.16,0.06h-2.72v1.62h2.99c0.06,0,0.12,0.02,0.16,0.06&#xA;&#x9;&#x9;&#x9;&#x9;&#x9;c0.04,0.04,0.06,0.09,0.06,0.16v0.59c0,0.06-0.02,0.11-0.06,0.15s-0.09,0.06-0.16,0.06H197.79z"></path>
&#x9;&#x9;&#x9;&#x9;<path class="st36" d="M203.23,57.46c-0.06,0-0.11-0.02-0.15-0.06s-0.06-0.09-0.06-0.15v-5.78c0-0.06,0.02-0.11,0.06-0.15&#xA;&#x9;&#x9;&#x9;&#x9;&#x9;c0.04-0.04,0.09-0.06,0.15-0.06h0.83c0.06,0,0.11,0.02,0.15,0.06c0.04,0.04,0.06,0.09,0.06,0.15v4.94h2.81&#xA;&#x9;&#x9;&#x9;&#x9;&#x9;c0.07,0,0.12,0.02,0.16,0.06c0.04,0.04,0.06,0.09,0.06,0.16v0.62c0,0.06-0.02,0.11-0.06,0.15c-0.04,0.04-0.09,0.06-0.16,0.06&#xA;&#x9;&#x9;&#x9;&#x9;&#x9;H203.23z"></path>
&#x9;&#x9;&#x9;&#x9;<path class="st36" d="M207.71,57.46c-0.05,0-0.09-0.02-0.13-0.05c-0.04-0.04-0.06-0.08-0.06-0.13c0-0.02,0.01-0.05,0.02-0.08&#xA;&#x9;&#x9;&#x9;&#x9;&#x9;l2.14-5.72c0.02-0.06,0.05-0.11,0.1-0.16c0.05-0.04,0.12-0.07,0.21-0.07h0.97c0.09,0,0.16,0.02,0.2,0.07&#xA;&#x9;&#x9;&#x9;&#x9;&#x9;c0.05,0.04,0.08,0.1,0.11,0.16l2.14,5.72c0.01,0.03,0.01,0.06,0.01,0.08c0,0.05-0.02,0.1-0.05,0.13&#xA;&#x9;&#x9;&#x9;&#x9;&#x9;c-0.04,0.04-0.08,0.05-0.12,0.05h-0.77c-0.08,0-0.14-0.02-0.18-0.06s-0.06-0.08-0.08-0.11l-0.42-1.08h-2.63l-0.42,1.08&#xA;&#x9;&#x9;&#x9;&#x9;&#x9;c-0.01,0.04-0.04,0.07-0.08,0.11c-0.04,0.04-0.1,0.06-0.18,0.06H207.71z M209.47,55.18h2.01l-1.01-2.74L209.47,55.18z"></path>
&#x9;&#x9;&#x9;&#x9;<path class="st36" d="M216.34,57.46c-0.06,0-0.11-0.02-0.15-0.06s-0.06-0.09-0.06-0.15v-5.77c0-0.06,0.02-0.12,0.06-0.16&#xA;&#x9;&#x9;&#x9;&#x9;&#x9;c0.04-0.04,0.09-0.06,0.15-0.06h2.17c0.6,0,1.09,0.09,1.48,0.27c0.39,0.18,0.68,0.46,0.88,0.82c0.2,0.36,0.3,0.8,0.31,1.32&#xA;&#x9;&#x9;&#x9;&#x9;&#x9;c0.01,0.26,0.02,0.49,0.02,0.69s-0.01,0.43-0.02,0.68c-0.01,0.55-0.11,1-0.3,1.36c-0.19,0.36-0.47,0.62-0.86,0.8&#xA;&#x9;&#x9;&#x9;&#x9;&#x9;c-0.38,0.17-0.87,0.26-1.46,0.26H216.34z M217.36,56.44h1.14c0.33,0,0.6-0.05,0.81-0.14c0.21-0.09,0.36-0.25,0.46-0.46&#xA;&#x9;&#x9;&#x9;&#x9;&#x9;s0.15-0.49,0.16-0.83c0.01-0.18,0.01-0.33,0.01-0.47c0-0.13,0-0.27,0-0.4c0-0.13-0.01-0.29-0.01-0.46&#xA;&#x9;&#x9;&#x9;&#x9;&#x9;c-0.01-0.48-0.13-0.84-0.36-1.07c-0.23-0.23-0.6-0.35-1.1-0.35h-1.1V56.44z"></path>
&#x9;&#x9;&#x9;&#x9;<path class="st36" d="M222.51,57.46c-0.06,0-0.11-0.02-0.15-0.06s-0.06-0.09-0.06-0.15v-5.77c0-0.06,0.02-0.12,0.06-0.16&#xA;&#x9;&#x9;&#x9;&#x9;&#x9;c0.04-0.04,0.09-0.06,0.15-0.06h3.9c0.06,0,0.12,0.02,0.16,0.06c0.04,0.04,0.06,0.09,0.06,0.16v0.59c0,0.06-0.02,0.11-0.06,0.15&#xA;&#x9;&#x9;&#x9;&#x9;&#x9;c-0.04,0.04-0.09,0.06-0.16,0.06h-2.92v1.57h2.72c0.07,0,0.12,0.02,0.16,0.06c0.04,0.04,0.06,0.09,0.06,0.16v0.55&#xA;&#x9;&#x9;&#x9;&#x9;&#x9;c0,0.06-0.02,0.12-0.06,0.16c-0.04,0.04-0.09,0.06-0.16,0.06h-2.72v1.62h2.99c0.06,0,0.12,0.02,0.16,0.06&#xA;&#x9;&#x9;&#x9;&#x9;&#x9;c0.04,0.04,0.06,0.09,0.06,0.16v0.59c0,0.06-0.02,0.11-0.06,0.15s-0.09,0.06-0.16,0.06H222.51z"></path>
&#x9;&#x9;&#x9;</g>
&#x9;&#x9;</g>
&#x9;</g>
&#x9;<path class="st36" d="M43.34,17.19c7.74,0,11.6,5.8,11.6,12.57c0.1,3.09,0,4.84,0,8.7c-1.15,0-2.9,0-2.9,0s-2.55,5.51,1.93,8.7&#xA;&#x9;&#x9;c0,0.19-16.53,5.45-20.31-10.64c0,0.19,8.55,5.41,13.54,3.87c0,0,1.94-7.22,0.5-11.59c-1.87-5.65-10.13-4.07-14.03-1.8&#xA;&#x9;&#x9;c-9.7,5.64-12.78,14.39-16.45,21.12C17.23,48.13,19.64,17.19,43.34,17.19L43.34,17.19z M132.09,56.2c-0.75,0-1.35-0.24-1.78-0.71&#xA;&#x9;&#x9;c-0.43-0.47-0.66-1.15-0.69-2.03l-0.01-0.41l0.01-0.42c0.03-0.85,0.26-1.51,0.7-2c0.43-0.49,1.03-0.73,1.77-0.73&#xA;&#x9;&#x9;c0.7,0,1.26,0.23,1.69,0.68v-2.48c0-0.09,0.03-0.16,0.09-0.21c0.06-0.05,0.13-0.08,0.2-0.08h1.5c0.09,0,0.16,0.03,0.22,0.08&#xA;&#x9;&#x9;c0.06,0.05,0.09,0.12,0.09,0.21v7.69c0,0.09-0.03,0.16-0.09,0.21c-0.06,0.05-0.13,0.08-0.22,0.08h-1.39c-0.08,0-0.15-0.03-0.2-0.09&#xA;&#x9;&#x9;c-0.06-0.06-0.09-0.13-0.09-0.2v-0.36C133.48,55.95,132.87,56.2,132.09,56.2L132.09,56.2z M132.76,54.58&#xA;&#x9;&#x9;c0.33,0,0.58-0.11,0.75-0.32c0.16-0.21,0.25-0.48,0.27-0.81c0.02-0.22,0.02-0.37,0.02-0.44c0-0.09-0.01-0.23-0.02-0.43&#xA;&#x9;&#x9;c-0.02-0.3-0.11-0.55-0.27-0.75c-0.17-0.2-0.41-0.3-0.74-0.3c-0.35,0-0.6,0.1-0.75,0.31c-0.15,0.21-0.24,0.49-0.26,0.86l-0.01,0.36&#xA;&#x9;&#x9;l0.01,0.36c0.02,0.37,0.11,0.65,0.26,0.86C132.16,54.48,132.42,54.58,132.76,54.58L132.76,54.58z M139.93,56.2&#xA;&#x9;&#x9;c-0.95,0-1.69-0.25-2.24-0.76c-0.54-0.51-0.82-1.25-0.84-2.22v-0.36c0.03-0.92,0.32-1.65,0.86-2.17c0.54-0.52,1.28-0.78,2.2-0.78&#xA;&#x9;&#x9;c0.67,0,1.23,0.13,1.7,0.4c0.46,0.27,0.81,0.64,1.04,1.11c0.23,0.47,0.34,1,0.34,1.6v0.29c0,0.09-0.03,0.16-0.09,0.22&#xA;&#x9;&#x9;c-0.06,0.06-0.13,0.09-0.22,0.09h-3.69v0.07c0.01,0.35,0.09,0.63,0.24,0.84c0.16,0.21,0.38,0.32,0.66,0.32&#xA;&#x9;&#x9;c0.19,0,0.34-0.04,0.45-0.11c0.11-0.07,0.22-0.17,0.32-0.29c0.07-0.08,0.13-0.13,0.17-0.15c0.04-0.02,0.11-0.03,0.2-0.03h1.53&#xA;&#x9;&#x9;c0.07,0,0.13,0.02,0.18,0.06c0.05,0.04,0.08,0.09,0.08,0.16c0,0.2-0.11,0.44-0.34,0.71c-0.23,0.27-0.56,0.5-1,0.7&#xA;&#x9;&#x9;C141.04,56.11,140.52,56.2,139.93,56.2L139.93,56.2z M140.85,52.43v-0.02c0-0.37-0.08-0.66-0.24-0.87&#xA;&#x9;&#x9;c-0.16-0.21-0.39-0.31-0.69-0.31c-0.3,0-0.52,0.1-0.68,0.31c-0.16,0.21-0.24,0.5-0.24,0.87v0.02H140.85L140.85,52.43z M66.87,67.71&#xA;&#x9;&#x9;c-1.13,0-2.01-0.27-2.65-0.82c-0.64-0.55-0.98-1.33-1.01-2.35c-0.01-0.22-0.01-0.57-0.01-1.06c0-0.49,0-0.85,0.01-1.07&#xA;&#x9;&#x9;c0.03-0.98,0.37-1.74,1.02-2.28c0.65-0.54,1.53-0.81,2.64-0.81c0.75,0,1.4,0.12,1.95,0.36c0.56,0.24,0.98,0.55,1.27,0.93&#xA;&#x9;&#x9;c0.29,0.38,0.44,0.76,0.46,1.16c0,0.07-0.03,0.13-0.08,0.18c-0.05,0.05-0.11,0.08-0.18,0.08h-1.81c-0.08,0-0.14-0.01-0.18-0.04&#xA;&#x9;&#x9;c-0.04-0.03-0.08-0.07-0.12-0.12c-0.09-0.22-0.24-0.4-0.45-0.56c-0.21-0.16-0.5-0.23-0.87-0.23c-0.9,0-1.37,0.47-1.4,1.4&#xA;&#x9;&#x9;c-0.01,0.22-0.01,0.55-0.01,1c0,0.45,0,0.79,0.01,1.01c0.03,0.99,0.51,1.48,1.42,1.48c0.45,0,0.81-0.11,1.07-0.34&#xA;&#x9;&#x9;c0.26-0.23,0.4-0.57,0.4-1.03v-0.21h-1.04c-0.09,0-0.16-0.03-0.22-0.09c-0.06-0.06-0.09-0.13-0.09-0.22v-0.91&#xA;&#x9;&#x9;c0-0.09,0.03-0.16,0.09-0.22c0.06-0.06,0.13-0.09,0.22-0.09h2.96c0.09,0,0.16,0.03,0.22,0.09c0.06,0.06,0.09,0.13,0.09,0.22v1.35&#xA;&#x9;&#x9;c0,0.66-0.15,1.23-0.46,1.71c-0.31,0.48-0.74,0.84-1.3,1.1C68.27,67.58,67.61,67.71,66.87,67.71L66.87,67.71z M71.92,67.59&#xA;&#x9;&#x9;c-0.08,0-0.15-0.03-0.2-0.09c-0.06-0.06-0.09-0.13-0.09-0.2v-5.47c0-0.09,0.03-0.16,0.08-0.22c0.05-0.06,0.12-0.09,0.21-0.09h1.42&#xA;&#x9;&#x9;c0.09,0,0.16,0.03,0.22,0.09c0.06,0.06,0.09,0.13,0.09,0.22v0.44c0.22-0.24,0.47-0.43,0.76-0.55c0.29-0.13,0.62-0.19,0.97-0.19&#xA;&#x9;&#x9;h0.52c0.09,0,0.16,0.03,0.21,0.08c0.05,0.05,0.08,0.12,0.08,0.21v1.27c0,0.08-0.03,0.15-0.08,0.2c-0.05,0.06-0.12,0.09-0.21,0.09&#xA;&#x9;&#x9;h-1.18c-0.31,0-0.55,0.09-0.72,0.26c-0.17,0.17-0.25,0.41-0.25,0.72v2.94c0,0.09-0.03,0.16-0.09,0.21&#xA;&#x9;&#x9;c-0.06,0.05-0.13,0.08-0.22,0.08H71.92L71.92,67.59z M78.71,67.71c-0.41,0-0.79-0.08-1.12-0.24c-0.34-0.16-0.6-0.38-0.79-0.66&#xA;&#x9;&#x9;c-0.19-0.28-0.29-0.59-0.29-0.92c0-0.53,0.22-0.96,0.66-1.29c0.44-0.33,1.04-0.56,1.81-0.68l1.45-0.22v-0.14&#xA;&#x9;&#x9;c0-0.29-0.06-0.5-0.17-0.63c-0.12-0.13-0.31-0.2-0.59-0.2c-0.16,0-0.29,0.03-0.39,0.08c-0.1,0.05-0.22,0.14-0.36,0.24&#xA;&#x9;&#x9;c-0.1,0.09-0.19,0.15-0.27,0.19c-0.03,0.05-0.07,0.08-0.12,0.08h-1.35c-0.08,0-0.14-0.02-0.19-0.08c-0.05-0.05-0.07-0.11-0.06-0.18&#xA;&#x9;&#x9;c0.01-0.21,0.11-0.44,0.31-0.71c0.2-0.26,0.51-0.48,0.92-0.67c0.41-0.19,0.92-0.28,1.53-0.28c0.96,0,1.68,0.21,2.14,0.63&#xA;&#x9;&#x9;c0.47,0.42,0.7,1,0.7,1.72v3.53c0,0.08-0.03,0.15-0.08,0.2c-0.05,0.06-0.12,0.09-0.21,0.09h-1.43c-0.08,0-0.15-0.03-0.2-0.09&#xA;&#x9;&#x9;c-0.06-0.06-0.09-0.13-0.09-0.2v-0.41c-0.17,0.24-0.41,0.44-0.71,0.59C79.49,67.63,79.13,67.71,78.71,67.71L78.71,67.71z&#xA;&#x9;&#x9; M79.29,66.33c0.34,0,0.62-0.11,0.83-0.34c0.21-0.23,0.32-0.55,0.32-0.98v-0.14l-0.97,0.16c-0.65,0.12-0.98,0.36-0.98,0.7&#xA;&#x9;&#x9;c0,0.18,0.08,0.32,0.23,0.43C78.88,66.28,79.07,66.33,79.29,66.33L79.29,66.33z M83.96,67.59c-0.08,0-0.15-0.03-0.2-0.09&#xA;&#x9;&#x9;c-0.06-0.06-0.09-0.13-0.09-0.2v-5.48c0-0.09,0.03-0.16,0.09-0.21c0.06-0.05,0.13-0.08,0.2-0.08h1.43c0.09,0,0.16,0.03,0.21,0.08&#xA;&#x9;&#x9;c0.05,0.05,0.08,0.12,0.08,0.21v0.44c0.21-0.26,0.48-0.46,0.81-0.62c0.33-0.16,0.71-0.23,1.14-0.23c0.44,0,0.84,0.1,1.18,0.3&#xA;&#x9;&#x9;c0.35,0.2,0.62,0.5,0.82,0.9c0.2,0.4,0.3,0.87,0.3,1.43v3.25c0,0.08-0.03,0.15-0.08,0.2c-0.05,0.06-0.12,0.09-0.21,0.09h-1.55&#xA;&#x9;&#x9;c-0.09,0-0.16-0.03-0.22-0.08c-0.06-0.05-0.09-0.12-0.09-0.21v-3.18c0-0.35-0.08-0.62-0.25-0.8c-0.17-0.19-0.41-0.28-0.73-0.28&#xA;&#x9;&#x9;c-0.31,0-0.56,0.1-0.73,0.29c-0.18,0.19-0.27,0.46-0.27,0.8v3.18c0,0.08-0.03,0.15-0.08,0.2c-0.05,0.06-0.12,0.09-0.21,0.09H83.96&#xA;&#x9;&#x9;L83.96,67.59z M97.03,67.71c-1.11,0-1.98-0.27-2.62-0.8c-0.63-0.54-0.97-1.32-1.01-2.35c-0.01-0.21-0.01-0.55-0.01-1.03&#xA;&#x9;&#x9;c0-0.48,0-0.83,0.01-1.05c0.04-1.01,0.38-1.79,1.02-2.34c0.64-0.55,1.51-0.82,2.6-0.82c0.69,0,1.31,0.11,1.86,0.34&#xA;&#x9;&#x9;c0.55,0.23,0.98,0.55,1.3,0.98c0.32,0.43,0.49,0.93,0.5,1.51c0,0.07-0.03,0.13-0.08,0.17c-0.05,0.05-0.11,0.07-0.18,0.07h-1.65&#xA;&#x9;&#x9;c-0.11,0-0.19-0.02-0.24-0.06c-0.05-0.04-0.1-0.12-0.13-0.24c-0.11-0.38-0.27-0.65-0.5-0.8c-0.22-0.15-0.51-0.23-0.88-0.23&#xA;&#x9;&#x9;c-0.88,0-1.33,0.49-1.36,1.47c-0.01,0.21-0.01,0.53-0.01,0.97s0,0.77,0.01,0.99c0.03,0.98,0.49,1.47,1.36,1.47&#xA;&#x9;&#x9;c0.36,0,0.65-0.08,0.88-0.23c0.23-0.16,0.39-0.42,0.5-0.79c0.03-0.12,0.07-0.2,0.13-0.24c0.05-0.04,0.14-0.06,0.24-0.06h1.65&#xA;&#x9;&#x9;c0.07,0,0.13,0.02,0.18,0.07c0.05,0.05,0.08,0.11,0.08,0.18c-0.02,0.58-0.18,1.09-0.5,1.51c-0.32,0.43-0.75,0.75-1.3,0.98&#xA;&#x9;&#x9;C98.34,67.59,97.72,67.71,97.03,67.71L97.03,67.71z M103.46,67.71c-0.41,0-0.79-0.08-1.12-0.24c-0.34-0.16-0.6-0.38-0.79-0.66&#xA;&#x9;&#x9;c-0.19-0.28-0.29-0.59-0.29-0.92c0-0.53,0.22-0.96,0.66-1.29c0.44-0.33,1.04-0.56,1.81-0.68l1.45-0.22v-0.14&#xA;&#x9;&#x9;c0-0.29-0.06-0.5-0.17-0.63s-0.31-0.2-0.59-0.2c-0.16,0-0.29,0.03-0.39,0.08c-0.1,0.05-0.22,0.14-0.36,0.24&#xA;&#x9;&#x9;c-0.1,0.09-0.19,0.15-0.27,0.19c-0.03,0.05-0.07,0.08-0.12,0.08h-1.35c-0.08,0-0.14-0.02-0.19-0.08c-0.05-0.05-0.07-0.11-0.06-0.18&#xA;&#x9;&#x9;c0.01-0.21,0.11-0.44,0.31-0.71c0.2-0.26,0.51-0.48,0.92-0.67c0.41-0.19,0.92-0.28,1.53-0.28c0.96,0,1.68,0.21,2.14,0.63&#xA;&#x9;&#x9;c0.47,0.42,0.7,1,0.7,1.72v3.53c0,0.08-0.03,0.15-0.08,0.2c-0.05,0.06-0.12,0.09-0.21,0.09h-1.43c-0.08,0-0.15-0.03-0.2-0.09&#xA;&#x9;&#x9;c-0.06-0.06-0.09-0.13-0.09-0.2v-0.41c-0.17,0.24-0.41,0.44-0.71,0.59C104.24,67.63,103.87,67.71,103.46,67.71L103.46,67.71z&#xA;&#x9;&#x9; M104.04,66.33c0.34,0,0.62-0.11,0.83-0.34c0.21-0.23,0.32-0.55,0.32-0.98v-0.14l-0.97,0.16c-0.65,0.12-0.98,0.36-0.98,0.7&#xA;&#x9;&#x9;c0,0.18,0.08,0.32,0.23,0.43C103.62,66.28,103.81,66.33,104.04,66.33L104.04,66.33z M108.71,67.59c-0.08,0-0.15-0.03-0.2-0.09&#xA;&#x9;&#x9;c-0.06-0.06-0.09-0.13-0.09-0.2v-5.48c0-0.09,0.03-0.16,0.09-0.21c0.06-0.05,0.13-0.08,0.2-0.08h1.43c0.09,0,0.16,0.03,0.21,0.08&#xA;&#x9;&#x9;c0.05,0.05,0.08,0.12,0.08,0.21v0.44c0.21-0.26,0.48-0.46,0.81-0.62c0.33-0.16,0.71-0.23,1.14-0.23c0.44,0,0.84,0.1,1.18,0.3&#xA;&#x9;&#x9;c0.35,0.2,0.62,0.5,0.82,0.9c0.2,0.4,0.3,0.87,0.3,1.43v3.25c0,0.08-0.03,0.15-0.08,0.2c-0.05,0.06-0.12,0.09-0.21,0.09h-1.55&#xA;&#x9;&#x9;c-0.09,0-0.16-0.03-0.22-0.08c-0.06-0.05-0.09-0.12-0.09-0.21v-3.18c0-0.35-0.08-0.62-0.25-0.8c-0.17-0.19-0.41-0.28-0.73-0.28&#xA;&#x9;&#x9;c-0.31,0-0.56,0.1-0.73,0.29c-0.18,0.19-0.27,0.46-0.27,0.8v3.18c0,0.08-0.03,0.15-0.08,0.2c-0.05,0.06-0.12,0.09-0.21,0.09H108.71&#xA;&#x9;&#x9;L108.71,67.59z M117.65,67.71c-0.41,0-0.79-0.08-1.12-0.24c-0.34-0.16-0.6-0.38-0.79-0.66c-0.19-0.28-0.29-0.59-0.29-0.92&#xA;&#x9;&#x9;c0-0.53,0.22-0.96,0.66-1.29c0.44-0.33,1.04-0.56,1.81-0.68l1.45-0.22v-0.14c0-0.29-0.06-0.5-0.17-0.63&#xA;&#x9;&#x9;c-0.12-0.13-0.31-0.2-0.59-0.2c-0.16,0-0.29,0.03-0.39,0.08c-0.1,0.05-0.22,0.14-0.36,0.24c-0.1,0.09-0.19,0.15-0.27,0.19&#xA;&#x9;&#x9;c-0.03,0.05-0.07,0.08-0.12,0.08h-1.35c-0.08,0-0.14-0.02-0.19-0.08c-0.05-0.05-0.07-0.11-0.06-0.18c0.01-0.21,0.11-0.44,0.31-0.71&#xA;&#x9;&#x9;c0.2-0.26,0.51-0.48,0.92-0.67c0.41-0.19,0.92-0.28,1.53-0.28c0.96,0,1.68,0.21,2.14,0.63c0.47,0.42,0.7,1,0.7,1.72v3.53&#xA;&#x9;&#x9;c0,0.08-0.03,0.15-0.08,0.2c-0.05,0.06-0.12,0.09-0.21,0.09h-1.43c-0.08,0-0.15-0.03-0.2-0.09c-0.06-0.06-0.09-0.13-0.09-0.2v-0.41&#xA;&#x9;&#x9;c-0.17,0.24-0.41,0.44-0.71,0.59C118.43,67.63,118.07,67.71,117.65,67.71L117.65,67.71z M118.23,66.33c0.34,0,0.62-0.11,0.83-0.34&#xA;&#x9;&#x9;c0.21-0.23,0.32-0.55,0.32-0.98v-0.14l-0.97,0.16c-0.65,0.12-0.98,0.36-0.98,0.7c0,0.18,0.08,0.32,0.23,0.43&#xA;&#x9;&#x9;C117.82,66.28,118.01,66.33,118.23,66.33L118.23,66.33z M122.9,67.59c-0.08,0-0.15-0.03-0.2-0.09c-0.06-0.06-0.09-0.13-0.09-0.2&#xA;&#x9;&#x9;v-5.47c0-0.09,0.03-0.16,0.08-0.22c0.05-0.06,0.12-0.09,0.21-0.09h1.42c0.09,0,0.16,0.03,0.22,0.09c0.06,0.06,0.09,0.13,0.09,0.22&#xA;&#x9;&#x9;v0.44c0.22-0.24,0.47-0.43,0.76-0.55c0.29-0.13,0.62-0.19,0.97-0.19h0.52c0.09,0,0.16,0.03,0.21,0.08&#xA;&#x9;&#x9;c0.05,0.05,0.08,0.12,0.08,0.21v1.27c0,0.08-0.03,0.15-0.08,0.2c-0.05,0.06-0.12,0.09-0.21,0.09h-1.18c-0.31,0-0.55,0.09-0.72,0.26&#xA;&#x9;&#x9;c-0.17,0.17-0.25,0.41-0.25,0.72v2.94c0,0.09-0.03,0.16-0.09,0.21c-0.06,0.05-0.13,0.08-0.22,0.08H122.9L122.9,67.59z&#xA;&#x9;&#x9; M128.15,60.69c-0.09,0-0.16-0.03-0.21-0.09c-0.05-0.06-0.08-0.13-0.08-0.22V59.3c0-0.09,0.03-0.16,0.09-0.22&#xA;&#x9;&#x9;c0.06-0.06,0.13-0.09,0.2-0.09h1.46c0.09,0,0.16,0.03,0.22,0.09c0.06,0.06,0.09,0.13,0.09,0.22v1.08c0,0.09-0.03,0.16-0.09,0.22&#xA;&#x9;&#x9;c-0.06,0.06-0.13,0.09-0.22,0.09H128.15L128.15,60.69z M128.15,67.59c-0.08,0-0.15-0.03-0.2-0.09c-0.06-0.06-0.09-0.13-0.09-0.2&#xA;&#x9;&#x9;v-5.48c0-0.09,0.03-0.16,0.09-0.21c0.06-0.05,0.13-0.08,0.2-0.08h1.46c0.09,0,0.16,0.03,0.22,0.08c0.06,0.05,0.09,0.12,0.09,0.21&#xA;&#x9;&#x9;v5.48c0,0.09-0.03,0.16-0.09,0.21c-0.06,0.05-0.13,0.08-0.22,0.08H128.15L128.15,67.59z M132.95,67.71c-0.41,0-0.79-0.08-1.12-0.24&#xA;&#x9;&#x9;c-0.34-0.16-0.6-0.38-0.79-0.66c-0.19-0.28-0.29-0.59-0.29-0.92c0-0.53,0.22-0.96,0.66-1.29c0.44-0.33,1.04-0.56,1.81-0.68&#xA;&#x9;&#x9;l1.44-0.22v-0.14c0-0.29-0.06-0.5-0.17-0.63c-0.12-0.13-0.31-0.2-0.59-0.2c-0.16,0-0.29,0.03-0.39,0.08&#xA;&#x9;&#x9;c-0.1,0.05-0.22,0.14-0.36,0.24c-0.1,0.09-0.19,0.15-0.27,0.19c-0.03,0.05-0.07,0.08-0.12,0.08h-1.35c-0.08,0-0.14-0.02-0.19-0.08&#xA;&#x9;&#x9;c-0.05-0.05-0.07-0.11-0.06-0.18c0.01-0.21,0.11-0.44,0.31-0.71c0.2-0.26,0.51-0.48,0.92-0.67c0.41-0.19,0.92-0.28,1.53-0.28&#xA;&#x9;&#x9;c0.96,0,1.68,0.21,2.14,0.63c0.47,0.42,0.7,1,0.7,1.72v3.53c0,0.08-0.03,0.15-0.08,0.2c-0.05,0.06-0.12,0.09-0.21,0.09h-1.43&#xA;&#x9;&#x9;c-0.08,0-0.15-0.03-0.2-0.09c-0.06-0.06-0.09-0.13-0.09-0.2v-0.41c-0.17,0.24-0.41,0.44-0.71,0.59&#xA;&#x9;&#x9;C133.73,67.63,133.37,67.71,132.95,67.71L132.95,67.71z M133.53,66.33c0.34,0,0.62-0.11,0.83-0.34c0.21-0.23,0.32-0.55,0.32-0.98&#xA;&#x9;&#x9;v-0.14l-0.97,0.16c-0.65,0.12-0.98,0.36-0.98,0.7c0,0.18,0.08,0.32,0.23,0.43C133.11,66.28,133.3,66.33,133.53,66.33L133.53,66.33z&#xA;&#x9;&#x9; M66.58,44.7c-1.06,0-1.88-0.27-2.46-0.8c-0.58-0.54-0.87-1.35-0.87-2.44v-4.74c0-0.09,0.03-0.16,0.08-0.21&#xA;&#x9;&#x9;c0.05-0.05,0.12-0.08,0.2-0.08h1.07c0.09,0,0.16,0.03,0.21,0.08c0.05,0.05,0.08,0.12,0.08,0.21v4.74c0,0.61,0.15,1.08,0.44,1.39&#xA;&#x9;&#x9;c0.29,0.31,0.7,0.47,1.24,0.47c0.54,0,0.95-0.16,1.24-0.47c0.29-0.31,0.44-0.77,0.44-1.39v-4.74c0-0.09,0.03-0.16,0.08-0.21&#xA;&#x9;&#x9;c0.05-0.05,0.12-0.08,0.21-0.08h1.07c0.09,0,0.15,0.03,0.2,0.08c0.05,0.05,0.08,0.12,0.08,0.21v4.74c0,1.09-0.29,1.9-0.87,2.44&#xA;&#x9;&#x9;C68.44,44.43,67.63,44.7,66.58,44.7L66.58,44.7z M71.64,44.59c-0.08,0-0.14-0.03-0.2-0.08c-0.05-0.05-0.08-0.12-0.08-0.2v-5.5&#xA;&#x9;&#x9;c0-0.09,0.03-0.15,0.08-0.2c0.05-0.05,0.12-0.08,0.2-0.08h0.97c0.09,0,0.15,0.03,0.2,0.08c0.05,0.05,0.08,0.12,0.08,0.2v0.48&#xA;&#x9;&#x9;c0.47-0.58,1.12-0.87,1.95-0.87c0.71,0,1.28,0.23,1.7,0.7c0.42,0.47,0.63,1.11,0.63,1.92v3.27c0,0.08-0.03,0.14-0.08,0.2&#xA;&#x9;&#x9;c-0.05,0.05-0.12,0.08-0.2,0.08h-1.05c-0.08,0-0.14-0.03-0.2-0.08c-0.05-0.05-0.08-0.12-0.08-0.2V41.1c0-0.45-0.11-0.8-0.33-1.05&#xA;&#x9;&#x9;c-0.22-0.25-0.54-0.38-0.95-0.38c-0.4,0-0.71,0.13-0.96,0.38c-0.24,0.26-0.36,0.61-0.36,1.05v3.21c0,0.08-0.03,0.14-0.08,0.2&#xA;&#x9;&#x9;c-0.05,0.05-0.12,0.08-0.2,0.08H71.64L71.64,44.59z M78.75,37.54c-0.08,0-0.14-0.03-0.2-0.08c-0.05-0.05-0.08-0.12-0.08-0.2v-0.85&#xA;&#x9;&#x9;c0-0.09,0.03-0.16,0.08-0.21c0.05-0.05,0.12-0.08,0.2-0.08h1.07c0.09,0,0.16,0.03,0.21,0.08c0.05,0.05,0.08,0.12,0.08,0.21v0.85&#xA;&#x9;&#x9;c0,0.08-0.03,0.14-0.09,0.2c-0.06,0.05-0.13,0.08-0.2,0.08H78.75L78.75,37.54z M78.79,44.59c-0.08,0-0.14-0.03-0.2-0.08&#xA;&#x9;&#x9;c-0.05-0.05-0.08-0.12-0.08-0.2v-5.5c0-0.09,0.03-0.15,0.08-0.2c0.05-0.05,0.12-0.08,0.2-0.08h0.99c0.08,0,0.14,0.03,0.2,0.08&#xA;&#x9;&#x9;c0.05,0.05,0.08,0.12,0.08,0.2v5.5c0,0.08-0.03,0.14-0.08,0.2c-0.05,0.05-0.12,0.08-0.2,0.08H78.79L78.79,44.59z M83.61,44.59&#xA;&#x9;&#x9;c-0.12,0-0.21-0.03-0.27-0.08c-0.06-0.05-0.11-0.12-0.15-0.22L81,38.89c-0.01-0.02-0.01-0.06-0.01-0.1c0-0.07,0.03-0.13,0.08-0.18&#xA;&#x9;&#x9;c0.05-0.05,0.11-0.08,0.17-0.08h0.97c0.16,0,0.26,0.07,0.31,0.22l1.54,4.07l1.54-4.07c0.02-0.05,0.05-0.1,0.1-0.15&#xA;&#x9;&#x9;c0.05-0.05,0.12-0.07,0.2-0.07h0.97c0.07,0,0.13,0.03,0.17,0.08c0.05,0.05,0.07,0.11,0.07,0.18c0,0.05,0,0.08-0.01,0.1l-2.18,5.41&#xA;&#x9;&#x9;c-0.09,0.19-0.23,0.29-0.42,0.29H83.61L83.61,44.59z M90.66,44.7c-0.87,0-1.56-0.25-2.07-0.75c-0.51-0.5-0.78-1.2-0.81-2.12&#xA;&#x9;&#x9;l-0.01-0.29c0-0.97,0.25-1.74,0.76-2.3c0.51-0.56,1.21-0.84,2.12-0.84c0.92,0,1.64,0.28,2.14,0.84c0.5,0.56,0.75,1.31,0.75,2.24&#xA;&#x9;&#x9;v0.24c0,0.08-0.03,0.14-0.08,0.2c-0.05,0.05-0.12,0.08-0.21,0.08h-3.87v0.09c0.02,0.43,0.13,0.79,0.36,1.08&#xA;&#x9;&#x9;c0.22,0.28,0.53,0.43,0.92,0.43c0.44,0,0.8-0.18,1.08-0.54c0.07-0.09,0.12-0.14,0.16-0.16c0.04-0.02,0.11-0.03,0.2-0.03h1.03&#xA;&#x9;&#x9;c0.07,0,0.13,0.02,0.18,0.06c0.05,0.04,0.08,0.09,0.08,0.16c0,0.19-0.11,0.41-0.33,0.66c-0.22,0.25-0.54,0.47-0.95,0.66&#xA;&#x9;&#x9;C91.68,44.61,91.2,44.7,90.66,44.7L90.66,44.7z M91.93,41.02V41c0-0.46-0.11-0.83-0.34-1.1c-0.23-0.28-0.54-0.41-0.94-0.41&#xA;&#x9;&#x9;c-0.4,0-0.71,0.14-0.93,0.41c-0.23,0.28-0.34,0.64-0.34,1.1v0.02H91.93L91.93,41.02z M94.92,44.59c-0.08,0-0.14-0.03-0.2-0.08&#xA;&#x9;&#x9;c-0.05-0.05-0.08-0.12-0.08-0.2v-5.49c0-0.09,0.03-0.16,0.08-0.21c0.05-0.05,0.12-0.08,0.2-0.08h0.96c0.09,0,0.16,0.03,0.21,0.08&#xA;&#x9;&#x9;c0.05,0.05,0.08,0.12,0.08,0.21v0.48c0.39-0.51,0.95-0.77,1.68-0.77h0.49c0.09,0,0.15,0.03,0.2,0.08c0.05,0.05,0.08,0.12,0.08,0.2&#xA;&#x9;&#x9;v0.85c0,0.08-0.03,0.14-0.08,0.2c-0.05,0.05-0.12,0.08-0.2,0.08h-0.92c-0.37,0-0.65,0.1-0.86,0.31c-0.21,0.21-0.31,0.5-0.31,0.86&#xA;&#x9;&#x9;v3.19c0,0.08-0.03,0.14-0.08,0.2c-0.05,0.05-0.12,0.08-0.2,0.08H94.92L94.92,44.59z M101.7,44.7c-0.59,0-1.08-0.09-1.48-0.27&#xA;&#x9;&#x9;c-0.4-0.18-0.69-0.39-0.88-0.62c-0.19-0.24-0.29-0.44-0.29-0.61c0-0.08,0.03-0.14,0.08-0.19c0.05-0.05,0.11-0.07,0.18-0.07h0.96&#xA;&#x9;&#x9;c0.06,0,0.12,0.03,0.16,0.09c0.04,0.03,0.13,0.1,0.26,0.22c0.14,0.12,0.29,0.21,0.47,0.27c0.17,0.07,0.37,0.1,0.58,0.1&#xA;&#x9;&#x9;c0.31,0,0.56-0.06,0.76-0.18c0.19-0.12,0.29-0.29,0.29-0.52c0-0.16-0.04-0.28-0.13-0.38c-0.09-0.1-0.25-0.19-0.48-0.27&#xA;&#x9;&#x9;c-0.23-0.08-0.57-0.17-1.03-0.27c-0.66-0.14-1.15-0.35-1.46-0.64c-0.31-0.29-0.47-0.67-0.47-1.14c0-0.31,0.09-0.6,0.28-0.88&#xA;&#x9;&#x9;c0.19-0.28,0.46-0.5,0.83-0.68c0.37-0.17,0.81-0.26,1.32-0.26c0.53,0,0.98,0.08,1.36,0.25c0.38,0.17,0.67,0.37,0.87,0.6&#xA;&#x9;&#x9;c0.2,0.23,0.3,0.44,0.3,0.62c0,0.07-0.03,0.13-0.08,0.18c-0.05,0.05-0.11,0.08-0.18,0.08h-0.87c-0.09,0-0.15-0.03-0.2-0.09&#xA;&#x9;&#x9;c-0.05-0.04-0.14-0.11-0.26-0.22c-0.12-0.1-0.25-0.19-0.4-0.25c-0.15-0.06-0.33-0.09-0.54-0.09c-0.29,0-0.51,0.06-0.66,0.19&#xA;&#x9;&#x9;c-0.16,0.12-0.23,0.29-0.23,0.49c0,0.14,0.04,0.26,0.11,0.35s0.22,0.18,0.45,0.26c0.23,0.08,0.56,0.17,1.01,0.25&#xA;&#x9;&#x9;c1.4,0.27,2.1,0.88,2.1,1.83c0,0.55-0.24,1-0.72,1.34C103.22,44.53,102.55,44.7,101.7,44.7L101.7,44.7z M105.7,37.54&#xA;&#x9;&#x9;c-0.08,0-0.14-0.03-0.2-0.08c-0.05-0.05-0.08-0.12-0.08-0.2v-0.85c0-0.09,0.03-0.16,0.08-0.21c0.05-0.05,0.12-0.08,0.2-0.08h1.07&#xA;&#x9;&#x9;c0.09,0,0.16,0.03,0.21,0.08c0.05,0.05,0.08,0.12,0.08,0.21v0.85c0,0.08-0.03,0.14-0.09,0.2c-0.06,0.05-0.13,0.08-0.2,0.08H105.7&#xA;&#x9;&#x9;L105.7,37.54z M105.75,44.59c-0.08,0-0.14-0.03-0.2-0.08c-0.05-0.05-0.08-0.12-0.08-0.2v-5.5c0-0.09,0.03-0.15,0.08-0.2&#xA;&#x9;&#x9;c0.05-0.05,0.12-0.08,0.2-0.08h0.99c0.08,0,0.14,0.03,0.2,0.08c0.05,0.05,0.08,0.12,0.08,0.2v5.5c0,0.08-0.03,0.14-0.08,0.2&#xA;&#x9;&#x9;c-0.05,0.05-0.12,0.08-0.2,0.08H105.75L105.75,44.59z M110.67,44.7c-0.78,0-1.39-0.25-1.81-0.75c-0.42-0.5-0.65-1.17-0.69-2.01&#xA;&#x9;&#x9;l-0.01-0.38l0.01-0.38c0.03-0.82,0.26-1.49,0.68-2c0.42-0.51,1.03-0.76,1.81-0.76c0.75,0,1.34,0.26,1.78,0.77v-2.59&#xA;&#x9;&#x9;c0-0.09,0.03-0.15,0.08-0.2c0.05-0.05,0.12-0.08,0.2-0.08h1.01c0.09,0,0.15,0.03,0.2,0.08c0.05,0.05,0.08,0.12,0.08,0.2v7.72&#xA;&#x9;&#x9;c0,0.08-0.03,0.14-0.08,0.2c-0.05,0.05-0.12,0.08-0.2,0.08h-0.94c-0.08,0-0.14-0.03-0.2-0.08c-0.05-0.05-0.08-0.12-0.08-0.2v-0.43&#xA;&#x9;&#x9;C112.1,44.43,111.48,44.7,110.67,44.7L110.67,44.7z M111.12,43.44c0.44,0,0.77-0.14,0.98-0.43c0.21-0.28,0.33-0.64,0.36-1.05&#xA;&#x9;&#x9;c0.01-0.09,0.01-0.24,0.01-0.44c0-0.21,0-0.36-0.01-0.45c-0.02-0.39-0.14-0.72-0.36-0.99c-0.23-0.27-0.55-0.41-0.98-0.41&#xA;&#x9;&#x9;c-0.83,0-1.27,0.51-1.33,1.54l-0.01,0.35l0.01,0.35C109.84,42.93,110.29,43.44,111.12,43.44L111.12,43.44z M117.21,44.7&#xA;&#x9;&#x9;c-0.4,0-0.76-0.08-1.09-0.24c-0.33-0.16-0.59-0.37-0.78-0.65c-0.19-0.27-0.29-0.57-0.29-0.9c0-0.53,0.21-0.96,0.64-1.28&#xA;&#x9;&#x9;c0.43-0.33,1.01-0.55,1.76-0.66l1.6-0.23V40.5c0-0.33-0.09-0.59-0.26-0.76c-0.17-0.17-0.44-0.26-0.82-0.26&#xA;&#x9;&#x9;c-0.26,0-0.46,0.05-0.62,0.14c-0.16,0.09-0.28,0.19-0.38,0.29c-0.1,0.1-0.16,0.16-0.19,0.19c-0.03,0.09-0.09,0.14-0.17,0.14h-0.91&#xA;&#x9;&#x9;c-0.07,0-0.13-0.02-0.18-0.07c-0.05-0.05-0.08-0.11-0.08-0.19c0.01-0.19,0.1-0.41,0.29-0.66c0.18-0.24,0.46-0.46,0.85-0.64&#xA;&#x9;&#x9;c0.38-0.18,0.85-0.27,1.41-0.27c0.92,0,1.58,0.21,2,0.62c0.42,0.41,0.63,0.95,0.63,1.62v3.66c0,0.08-0.03,0.14-0.08,0.2&#xA;&#x9;&#x9;c-0.05,0.05-0.12,0.08-0.2,0.08h-0.97c-0.08,0-0.14-0.03-0.2-0.08c-0.05-0.05-0.08-0.12-0.08-0.2v-0.45&#xA;&#x9;&#x9;c-0.17,0.25-0.41,0.45-0.72,0.61C118.06,44.62,117.67,44.7,117.21,44.7L117.21,44.7z M117.6,43.58c0.43,0,0.78-0.14,1.05-0.42&#xA;&#x9;&#x9;c0.27-0.28,0.41-0.68,0.41-1.21v-0.23l-1.17,0.19c-0.89,0.14-1.34,0.44-1.34,0.9c0,0.25,0.1,0.44,0.31,0.58&#xA;&#x9;&#x9;C117.07,43.52,117.32,43.58,117.6,43.58L117.6,43.58z M124.23,44.7c-0.78,0-1.39-0.25-1.81-0.75c-0.42-0.5-0.65-1.17-0.69-2.01&#xA;&#x9;&#x9;l-0.01-0.38l0.01-0.38c0.03-0.82,0.26-1.49,0.68-2c0.42-0.51,1.03-0.76,1.81-0.76c0.75,0,1.34,0.26,1.78,0.77v-2.59&#xA;&#x9;&#x9;c0-0.09,0.03-0.15,0.08-0.2c0.05-0.05,0.12-0.08,0.2-0.08h1.01c0.09,0,0.15,0.03,0.2,0.08c0.05,0.05,0.08,0.12,0.08,0.2v7.72&#xA;&#x9;&#x9;c0,0.08-0.03,0.14-0.08,0.2c-0.05,0.05-0.12,0.08-0.2,0.08h-0.94c-0.08,0-0.14-0.03-0.2-0.08c-0.05-0.05-0.08-0.12-0.08-0.2v-0.43&#xA;&#x9;&#x9;C125.66,44.43,125.04,44.7,124.23,44.7L124.23,44.7z M124.67,43.44c0.44,0,0.77-0.14,0.98-0.43c0.21-0.28,0.33-0.64,0.36-1.05&#xA;&#x9;&#x9;c0.01-0.09,0.01-0.24,0.01-0.44c0-0.21,0-0.36-0.01-0.45c-0.02-0.39-0.14-0.72-0.36-0.99c-0.23-0.27-0.55-0.41-0.98-0.41&#xA;&#x9;&#x9;c-0.83,0-1.27,0.51-1.33,1.54l-0.01,0.35l0.01,0.35C123.4,42.93,123.84,43.44,124.67,43.44L124.67,43.44z M133.91,44.7&#xA;&#x9;&#x9;c-0.78,0-1.39-0.25-1.81-0.75c-0.42-0.5-0.65-1.17-0.69-2.01l-0.01-0.38l0.01-0.38c0.03-0.82,0.26-1.49,0.68-2&#xA;&#x9;&#x9;c0.42-0.51,1.03-0.76,1.81-0.76c0.75,0,1.34,0.26,1.78,0.77v-2.59c0-0.09,0.03-0.15,0.08-0.2c0.05-0.05,0.12-0.08,0.2-0.08h1.01&#xA;&#x9;&#x9;c0.09,0,0.15,0.03,0.2,0.08c0.05,0.05,0.08,0.12,0.08,0.2v7.72c0,0.08-0.03,0.14-0.08,0.2c-0.05,0.05-0.12,0.08-0.2,0.08h-0.94&#xA;&#x9;&#x9;c-0.08,0-0.14-0.03-0.2-0.08c-0.05-0.05-0.08-0.12-0.08-0.2v-0.43C135.34,44.43,134.72,44.7,133.91,44.7L133.91,44.7z&#xA;&#x9;&#x9; M134.35,43.44c0.44,0,0.77-0.14,0.98-0.43c0.21-0.28,0.33-0.64,0.36-1.05c0.01-0.09,0.01-0.24,0.01-0.44c0-0.21,0-0.36-0.01-0.45&#xA;&#x9;&#x9;c-0.02-0.39-0.14-0.72-0.36-0.99c-0.23-0.27-0.55-0.41-0.98-0.41c-0.83,0-1.27,0.51-1.33,1.54l-0.01,0.35l0.01,0.35&#xA;&#x9;&#x9;C133.08,42.93,133.52,43.44,134.35,43.44L134.35,43.44z M141.31,44.7c-0.87,0-1.56-0.25-2.07-0.75c-0.51-0.5-0.78-1.2-0.81-2.12&#xA;&#x9;&#x9;l-0.01-0.29c0-0.97,0.25-1.74,0.76-2.3c0.51-0.56,1.21-0.84,2.12-0.84c0.92,0,1.64,0.28,2.14,0.84c0.5,0.56,0.75,1.31,0.75,2.24&#xA;&#x9;&#x9;v0.24c0,0.08-0.03,0.14-0.08,0.2c-0.05,0.05-0.12,0.08-0.21,0.08h-3.87v0.09c0.02,0.43,0.13,0.79,0.36,1.08&#xA;&#x9;&#x9;c0.22,0.28,0.53,0.43,0.92,0.43c0.44,0,0.8-0.18,1.08-0.54c0.07-0.09,0.12-0.14,0.16-0.16c0.04-0.02,0.1-0.03,0.2-0.03h1.03&#xA;&#x9;&#x9;c0.07,0,0.13,0.02,0.18,0.06c0.05,0.04,0.08,0.09,0.08,0.16c0,0.19-0.11,0.41-0.33,0.66c-0.22,0.25-0.54,0.47-0.95,0.66&#xA;&#x9;&#x9;C142.33,44.61,141.85,44.7,141.31,44.7L141.31,44.7z M142.58,41.02V41c0-0.46-0.11-0.83-0.34-1.1c-0.23-0.28-0.54-0.41-0.94-0.41&#xA;&#x9;&#x9;c-0.4,0-0.71,0.14-0.93,0.41c-0.23,0.28-0.34,0.64-0.34,1.1v0.02H142.58L142.58,41.02z M63.49,56.09c-0.08,0-0.15-0.03-0.2-0.09&#xA;&#x9;&#x9;c-0.06-0.06-0.09-0.13-0.09-0.2v-7.58c0-0.09,0.03-0.16,0.09-0.21c0.06-0.05,0.13-0.08,0.2-0.08h1.63c0.09,0,0.16,0.03,0.21,0.08&#xA;&#x9;&#x9;c0.05,0.05,0.08,0.12,0.08,0.21v6.04h3.5c0.09,0,0.16,0.03,0.22,0.09c0.06,0.06,0.09,0.13,0.09,0.22v1.24&#xA;&#x9;&#x9;c0,0.09-0.03,0.16-0.09,0.21c-0.06,0.05-0.13,0.08-0.22,0.08H63.49L63.49,56.09z M71.77,56.2c-0.41,0-0.79-0.08-1.12-0.24&#xA;&#x9;&#x9;c-0.34-0.16-0.6-0.38-0.79-0.66c-0.19-0.28-0.29-0.59-0.29-0.92c0-0.53,0.22-0.96,0.66-1.29c0.44-0.33,1.04-0.56,1.81-0.68&#xA;&#x9;&#x9;l1.45-0.22v-0.14c0-0.29-0.06-0.5-0.17-0.63c-0.12-0.13-0.31-0.2-0.59-0.2c-0.16,0-0.29,0.03-0.39,0.08&#xA;&#x9;&#x9;c-0.1,0.05-0.22,0.14-0.36,0.24c-0.1,0.09-0.19,0.15-0.27,0.19c-0.03,0.05-0.07,0.08-0.12,0.08h-1.35c-0.08,0-0.14-0.03-0.19-0.08&#xA;&#x9;&#x9;c-0.05-0.05-0.07-0.11-0.06-0.18c0.01-0.21,0.11-0.44,0.31-0.71c0.2-0.26,0.51-0.48,0.92-0.67c0.41-0.19,0.92-0.28,1.53-0.28&#xA;&#x9;&#x9;c0.96,0,1.68,0.21,2.14,0.64s0.7,1,0.7,1.72v3.53c0,0.08-0.03,0.15-0.08,0.2c-0.05,0.06-0.12,0.09-0.21,0.09h-1.43&#xA;&#x9;&#x9;c-0.08,0-0.15-0.03-0.2-0.09c-0.06-0.06-0.09-0.13-0.09-0.2v-0.41c-0.17,0.24-0.41,0.44-0.71,0.59&#xA;&#x9;&#x9;C72.55,56.13,72.19,56.2,71.77,56.2L71.77,56.2z M72.35,54.83c0.34,0,0.62-0.11,0.83-0.34c0.21-0.23,0.32-0.55,0.32-0.98v-0.14&#xA;&#x9;&#x9;l-0.97,0.16c-0.65,0.12-0.98,0.36-0.98,0.7c0,0.18,0.08,0.32,0.23,0.43C71.94,54.78,72.13,54.83,72.35,54.83L72.35,54.83z&#xA;&#x9;&#x9; M79.27,56.2c-0.64,0-1.17-0.09-1.6-0.27c-0.43-0.18-0.74-0.39-0.95-0.64c-0.21-0.25-0.31-0.47-0.31-0.68&#xA;&#x9;&#x9;c0-0.08,0.03-0.14,0.09-0.19c0.06-0.05,0.12-0.08,0.19-0.08h1.41c0.05,0,0.09,0.02,0.12,0.05c0.13,0.09,0.21,0.14,0.22,0.15&#xA;&#x9;&#x9;c0.15,0.11,0.29,0.19,0.41,0.25c0.13,0.06,0.28,0.09,0.46,0.09c0.21,0,0.38-0.04,0.52-0.12c0.14-0.08,0.2-0.2,0.2-0.34&#xA;&#x9;&#x9;c0-0.12-0.04-0.23-0.11-0.3c-0.07-0.08-0.21-0.15-0.42-0.23c-0.21-0.07-0.52-0.15-0.94-0.23c-1.34-0.27-2.02-0.89-2.02-1.86&#xA;&#x9;&#x9;c0-0.32,0.1-0.62,0.31-0.92c0.21-0.29,0.51-0.53,0.91-0.7c0.4-0.18,0.88-0.27,1.44-0.27c0.57,0,1.06,0.09,1.47,0.26&#xA;&#x9;&#x9;c0.42,0.17,0.73,0.38,0.95,0.63c0.22,0.24,0.33,0.47,0.33,0.67c0,0.07-0.03,0.13-0.08,0.19c-0.05,0.05-0.11,0.08-0.18,0.08h-1.28&#xA;&#x9;&#x9;c-0.07,0-0.12-0.02-0.16-0.05c-0.09-0.05-0.19-0.1-0.28-0.17c-0.14-0.09-0.26-0.17-0.37-0.22c-0.1-0.05-0.24-0.08-0.4-0.08&#xA;&#x9;&#x9;c-0.19,0-0.35,0.04-0.45,0.13c-0.11,0.09-0.16,0.19-0.16,0.33c0,0.12,0.03,0.21,0.1,0.29c0.07,0.07,0.2,0.15,0.41,0.22&#xA;&#x9;&#x9;c0.21,0.07,0.52,0.14,0.94,0.22c0.76,0.13,1.32,0.37,1.66,0.7c0.35,0.34,0.52,0.73,0.52,1.18c0,0.58-0.26,1.05-0.78,1.39&#xA;&#x9;&#x9;C80.92,56.03,80.2,56.2,79.27,56.2L79.27,56.2z M85.96,56.09c-0.08,0-0.15-0.03-0.2-0.09c-0.06-0.06-0.09-0.13-0.09-0.2v-7.56&#xA;&#x9;&#x9;c0-0.09,0.03-0.16,0.08-0.22c0.05-0.06,0.12-0.09,0.21-0.09h3.3c1.01,0,1.8,0.23,2.38,0.69c0.57,0.46,0.86,1.13,0.86,2.02&#xA;&#x9;&#x9;c0,0.89-0.29,1.55-0.86,1.99c-0.57,0.44-1.37,0.66-2.38,0.66h-1.33v2.52c0,0.08-0.03,0.15-0.08,0.2c-0.05,0.06-0.12,0.09-0.21,0.09&#xA;&#x9;&#x9;H85.96L85.96,56.09z M89.2,51.61c0.32,0,0.57-0.08,0.75-0.25c0.18-0.17,0.27-0.41,0.27-0.74c0-0.3-0.08-0.55-0.25-0.73&#xA;&#x9;&#x9;c-0.17-0.19-0.43-0.28-0.77-0.28H87.9v2H89.2L89.2,51.61z M95.16,56.2c-0.41,0-0.79-0.08-1.12-0.24c-0.34-0.16-0.6-0.38-0.79-0.66&#xA;&#x9;&#x9;c-0.19-0.28-0.29-0.59-0.29-0.92c0-0.53,0.22-0.96,0.66-1.29c0.44-0.33,1.04-0.56,1.81-0.68l1.45-0.22v-0.14&#xA;&#x9;&#x9;c0-0.29-0.06-0.5-0.17-0.63c-0.12-0.13-0.31-0.2-0.59-0.2c-0.16,0-0.29,0.03-0.39,0.08c-0.1,0.05-0.22,0.14-0.36,0.24&#xA;&#x9;&#x9;c-0.1,0.09-0.19,0.15-0.27,0.19c-0.03,0.05-0.07,0.08-0.12,0.08h-1.35c-0.08,0-0.14-0.03-0.19-0.08c-0.05-0.05-0.07-0.11-0.06-0.18&#xA;&#x9;&#x9;c0.01-0.21,0.11-0.44,0.31-0.71c0.2-0.26,0.51-0.48,0.92-0.67s0.92-0.28,1.53-0.28c0.96,0,1.68,0.21,2.14,0.64&#xA;&#x9;&#x9;c0.47,0.42,0.7,1,0.7,1.72v3.53c0,0.08-0.03,0.15-0.08,0.2c-0.05,0.06-0.12,0.09-0.21,0.09h-1.43c-0.08,0-0.15-0.03-0.2-0.09&#xA;&#x9;&#x9;c-0.06-0.06-0.09-0.13-0.09-0.2v-0.41c-0.17,0.24-0.41,0.44-0.71,0.59C95.94,56.13,95.58,56.2,95.16,56.2L95.16,56.2z M95.75,54.83&#xA;&#x9;&#x9;c0.34,0,0.62-0.11,0.83-0.34c0.21-0.23,0.32-0.55,0.32-0.98v-0.14l-0.97,0.16c-0.65,0.12-0.98,0.36-0.98,0.7&#xA;&#x9;&#x9;c0,0.18,0.08,0.32,0.23,0.43C95.33,54.78,95.52,54.83,95.75,54.83L95.75,54.83z M100.43,56.09c-0.09,0-0.16-0.03-0.22-0.08&#xA;&#x9;&#x9;c-0.06-0.05-0.09-0.12-0.09-0.21v-7.69c0-0.09,0.03-0.16,0.09-0.21c0.06-0.05,0.13-0.08,0.22-0.08h1.46c0.09,0,0.16,0.03,0.21,0.08&#xA;&#x9;&#x9;c0.05,0.05,0.08,0.12,0.08,0.21v7.69c0,0.08-0.03,0.15-0.08,0.2c-0.05,0.06-0.12,0.09-0.21,0.09H100.43L100.43,56.09z&#xA;&#x9;&#x9; M103.67,56.09c-0.08,0-0.15-0.03-0.2-0.09c-0.06-0.06-0.09-0.13-0.09-0.2v-5.48c0-0.09,0.03-0.16,0.09-0.21&#xA;&#x9;&#x9;c0.06-0.05,0.13-0.08,0.2-0.08h1.35c0.09,0,0.16,0.03,0.21,0.08c0.05,0.05,0.08,0.12,0.08,0.21v0.4c0.19-0.23,0.43-0.42,0.72-0.57&#xA;&#x9;&#x9;c0.3-0.16,0.63-0.23,1-0.23c0.85,0,1.44,0.33,1.76,1c0.19-0.3,0.45-0.54,0.78-0.72c0.33-0.19,0.69-0.28,1.07-0.28&#xA;&#x9;&#x9;c0.64,0,1.16,0.22,1.56,0.65c0.4,0.43,0.6,1.07,0.6,1.93v3.31c0,0.08-0.03,0.15-0.08,0.2c-0.05,0.06-0.12,0.09-0.21,0.09h-1.43&#xA;&#x9;&#x9;c-0.09,0-0.16-0.03-0.22-0.08c-0.06-0.05-0.09-0.12-0.09-0.21v-3.23c0-0.36-0.08-0.62-0.23-0.79c-0.15-0.17-0.36-0.25-0.61-0.25&#xA;&#x9;&#x9;c-0.24,0-0.44,0.08-0.59,0.25c-0.15,0.17-0.23,0.43-0.23,0.79v3.23c0,0.08-0.03,0.15-0.08,0.2c-0.05,0.06-0.12,0.09-0.21,0.09&#xA;&#x9;&#x9;h-1.43c-0.09,0-0.16-0.03-0.22-0.08c-0.06-0.05-0.09-0.12-0.09-0.21v-3.23c0-0.36-0.08-0.62-0.23-0.79&#xA;&#x9;&#x9;c-0.16-0.17-0.36-0.25-0.61-0.25c-0.24,0-0.44,0.08-0.59,0.25c-0.16,0.17-0.23,0.43-0.23,0.78v3.24c0,0.08-0.03,0.15-0.08,0.2&#xA;&#x9;&#x9;c-0.05,0.06-0.12,0.09-0.21,0.09H103.67L103.67,56.09z M115.79,56.2c-0.41,0-0.79-0.08-1.12-0.24c-0.34-0.16-0.6-0.38-0.79-0.66&#xA;&#x9;&#x9;c-0.19-0.28-0.29-0.59-0.29-0.92c0-0.53,0.22-0.96,0.66-1.29c0.44-0.33,1.04-0.56,1.81-0.68l1.45-0.22v-0.14&#xA;&#x9;&#x9;c0-0.29-0.06-0.5-0.17-0.63c-0.12-0.13-0.31-0.2-0.59-0.2c-0.16,0-0.29,0.03-0.39,0.08c-0.1,0.05-0.22,0.14-0.36,0.24&#xA;&#x9;&#x9;c-0.1,0.09-0.19,0.15-0.27,0.19c-0.03,0.05-0.07,0.08-0.12,0.08h-1.35c-0.08,0-0.14-0.03-0.19-0.08c-0.05-0.05-0.07-0.11-0.06-0.18&#xA;&#x9;&#x9;c0.01-0.21,0.11-0.44,0.31-0.71c0.2-0.26,0.51-0.48,0.92-0.67c0.41-0.19,0.92-0.28,1.53-0.28c0.96,0,1.68,0.21,2.14,0.64&#xA;&#x9;&#x9;c0.47,0.42,0.7,1,0.7,1.72v3.53c0,0.08-0.03,0.15-0.08,0.2c-0.05,0.06-0.12,0.09-0.21,0.09h-1.43c-0.08,0-0.15-0.03-0.2-0.09&#xA;&#x9;&#x9;c-0.06-0.06-0.09-0.13-0.09-0.2v-0.41c-0.17,0.24-0.41,0.44-0.71,0.59C116.57,56.13,116.2,56.2,115.79,56.2L115.79,56.2z&#xA;&#x9;&#x9; M116.37,54.83c0.34,0,0.62-0.11,0.83-0.34c0.21-0.23,0.32-0.55,0.32-0.98v-0.14l-0.97,0.16c-0.65,0.12-0.98,0.36-0.98,0.7&#xA;&#x9;&#x9;c0,0.18,0.08,0.32,0.23,0.43C115.95,54.78,116.14,54.83,116.37,54.83L116.37,54.83z M123.28,56.2c-0.64,0-1.17-0.09-1.6-0.27&#xA;&#x9;&#x9;c-0.43-0.18-0.74-0.39-0.95-0.64c-0.21-0.25-0.31-0.47-0.31-0.68c0-0.08,0.03-0.14,0.09-0.19c0.06-0.05,0.12-0.08,0.19-0.08h1.41&#xA;&#x9;&#x9;c0.05,0,0.09,0.02,0.12,0.05c0.13,0.09,0.21,0.14,0.22,0.15c0.15,0.11,0.29,0.19,0.41,0.25c0.13,0.06,0.28,0.09,0.46,0.09&#xA;&#x9;&#x9;c0.21,0,0.38-0.04,0.52-0.12c0.14-0.08,0.2-0.2,0.2-0.34c0-0.12-0.04-0.23-0.11-0.3s-0.21-0.15-0.42-0.23&#xA;&#x9;&#x9;c-0.21-0.07-0.52-0.15-0.94-0.23c-1.34-0.27-2.02-0.89-2.02-1.86c0-0.32,0.1-0.62,0.31-0.92c0.21-0.29,0.51-0.53,0.91-0.7&#xA;&#x9;&#x9;c0.4-0.18,0.88-0.27,1.44-0.27c0.57,0,1.06,0.09,1.47,0.26c0.42,0.17,0.73,0.38,0.95,0.63c0.22,0.24,0.33,0.47,0.33,0.67&#xA;&#x9;&#x9;c0,0.07-0.03,0.13-0.08,0.19c-0.05,0.05-0.11,0.08-0.18,0.08h-1.28c-0.07,0-0.12-0.02-0.16-0.05c-0.09-0.05-0.19-0.1-0.28-0.17&#xA;&#x9;&#x9;c-0.14-0.09-0.26-0.17-0.37-0.22c-0.1-0.05-0.24-0.08-0.4-0.08c-0.19,0-0.35,0.04-0.45,0.13c-0.11,0.09-0.16,0.19-0.16,0.33&#xA;&#x9;&#x9;c0,0.12,0.03,0.21,0.1,0.29c0.07,0.07,0.2,0.15,0.41,0.22c0.21,0.07,0.52,0.14,0.94,0.22c0.76,0.13,1.32,0.37,1.66,0.7&#xA;&#x9;&#x9;c0.35,0.34,0.52,0.73,0.52,1.18c0,0.58-0.26,1.05-0.78,1.39C124.94,56.03,124.22,56.2,123.28,56.2z"></path>
&#x9;<path class="st41" d="M66.83,32.73c-1.1,0-1.97-0.27-2.59-0.8c-0.63-0.54-0.94-1.34-0.94-2.41v-4.75c0-0.09,0.03-0.16,0.08-0.22&#xA;&#x9;&#x9;s0.12-0.09,0.21-0.09h1.6c0.09,0,0.16,0.03,0.22,0.09c0.06,0.06,0.09,0.13,0.09,0.22v4.73c0,0.48,0.11,0.84,0.34,1.08&#xA;&#x9;&#x9;c0.23,0.24,0.56,0.36,0.98,0.36c0.43,0,0.76-0.12,0.98-0.37c0.23-0.24,0.34-0.6,0.34-1.08v-4.73c0-0.09,0.03-0.16,0.09-0.22&#xA;&#x9;&#x9;c0.06-0.06,0.13-0.09,0.22-0.09h1.58c0.09,0,0.16,0.03,0.22,0.09c0.06,0.06,0.09,0.13,0.09,0.22v4.75c0,1.07-0.31,1.88-0.93,2.41&#xA;&#x9;&#x9;C68.79,32.46,67.93,32.73,66.83,32.73L66.83,32.73z"></path>
&#x9;<path class="st41" d="M72.03,32.62c-0.08,0-0.15-0.03-0.2-0.09c-0.06-0.06-0.09-0.13-0.09-0.2v-7.58c0-0.09,0.03-0.16,0.09-0.21&#xA;&#x9;&#x9;c0.06-0.05,0.13-0.08,0.2-0.08h1.63c0.09,0,0.16,0.03,0.21,0.08c0.05,0.05,0.08,0.12,0.08,0.21v6.04h3.5&#xA;&#x9;&#x9;c0.09,0,0.16,0.03,0.22,0.09c0.06,0.06,0.09,0.13,0.09,0.22v1.24c0,0.09-0.03,0.16-0.09,0.21c-0.06,0.05-0.13,0.08-0.22,0.08H72.03&#xA;&#x9;&#x9;L72.03,32.62z"></path>
&#x9;<path class="st41" d="M84.57,25.15c-0.58-0.46-1.37-0.69-2.38-0.69h-3.3c-0.09,0-0.16,0.03-0.21,0.09s-0.08,0.13-0.08,0.22v7.56&#xA;&#x9;&#x9;c0,0.08,0.03,0.15,0.09,0.2c0.06,0.06,0.13,0.09,0.2,0.09h1.68c0.09,0,0.16-0.03,0.21-0.09c0.05-0.06,0.08-0.13,0.08-0.2v-2.52&#xA;&#x9;&#x9;h1.33c1.01,0,1.8-0.22,2.38-0.66c0.57-0.44,0.86-1.1,0.86-1.99C85.43,26.28,85.15,25.6,84.57,25.15z M82.89,27.89&#xA;&#x9;&#x9;c-0.18,0.17-0.43,0.25-0.75,0.25h-1.31v-2h1.31c0.35,0,0.61,0.09,0.77,0.28c0.17,0.19,0.25,0.43,0.25,0.73&#xA;&#x9;&#x9;C83.16,27.48,83.07,27.72,82.89,27.89z"></path>
&#x9;<path class="st41" d="M89.81,32.73c-1.13,0-2.01-0.27-2.65-0.82c-0.64-0.55-0.98-1.33-1.01-2.35c-0.01-0.22-0.01-0.57-0.01-1.06&#xA;&#x9;&#x9;c0-0.49,0-0.85,0.01-1.07c0.03-0.98,0.37-1.74,1.02-2.28c0.65-0.54,1.53-0.81,2.64-0.81c0.75,0,1.4,0.12,1.95,0.36&#xA;&#x9;&#x9;c0.56,0.24,0.98,0.55,1.27,0.93c0.29,0.38,0.44,0.76,0.46,1.16c0,0.07-0.03,0.13-0.08,0.18c-0.05,0.05-0.11,0.08-0.18,0.08h-1.81&#xA;&#x9;&#x9;c-0.08,0-0.14-0.01-0.18-0.04c-0.04-0.03-0.08-0.07-0.12-0.12c-0.09-0.22-0.24-0.4-0.45-0.56c-0.21-0.16-0.5-0.23-0.87-0.23&#xA;&#x9;&#x9;c-0.9,0-1.37,0.47-1.4,1.4c-0.01,0.22-0.01,0.55-0.01,1c0,0.45,0,0.79,0.01,1.01c0.03,0.99,0.5,1.48,1.42,1.48&#xA;&#x9;&#x9;c0.45,0,0.81-0.11,1.07-0.34c0.26-0.23,0.4-0.57,0.4-1.03v-0.21h-1.04c-0.09,0-0.16-0.03-0.22-0.09c-0.06-0.06-0.09-0.13-0.09-0.22&#xA;&#x9;&#x9;V28.2c0-0.09,0.03-0.16,0.09-0.22c0.06-0.06,0.13-0.09,0.22-0.09h2.96c0.09,0,0.16,0.03,0.22,0.09c0.06,0.06,0.09,0.13,0.09,0.22&#xA;&#x9;&#x9;v1.35c0,0.66-0.15,1.23-0.46,1.71c-0.31,0.48-0.74,0.84-1.3,1.1C91.21,32.61,90.56,32.73,89.81,32.73L89.81,32.73z"></path>
&#x9;<path class="st41" d="M98.08,32.73c-1.11,0-1.98-0.27-2.62-0.8c-0.63-0.54-0.97-1.32-1.01-2.35c-0.01-0.21-0.01-0.55-0.01-1.03&#xA;&#x9;&#x9;c0-0.48,0-0.83,0.01-1.05c0.04-1.01,0.38-1.79,1.02-2.34c0.64-0.55,1.51-0.82,2.6-0.82c0.69,0,1.31,0.11,1.86,0.34&#xA;&#x9;&#x9;c0.55,0.23,0.98,0.55,1.3,0.98c0.32,0.43,0.49,0.93,0.5,1.52c0,0.07-0.03,0.13-0.08,0.17c-0.05,0.05-0.11,0.07-0.18,0.07h-1.65&#xA;&#x9;&#x9;c-0.11,0-0.19-0.02-0.24-0.06c-0.05-0.04-0.1-0.12-0.13-0.24c-0.11-0.38-0.27-0.65-0.5-0.8c-0.22-0.15-0.51-0.23-0.88-0.23&#xA;&#x9;&#x9;c-0.88,0-1.33,0.49-1.36,1.47c-0.01,0.21-0.01,0.53-0.01,0.97c0,0.44,0,0.77,0.01,0.99c0.03,0.98,0.49,1.47,1.36,1.47&#xA;&#x9;&#x9;c0.36,0,0.65-0.08,0.88-0.23c0.23-0.16,0.39-0.42,0.5-0.79c0.03-0.12,0.07-0.2,0.13-0.24c0.05-0.04,0.14-0.06,0.24-0.06h1.65&#xA;&#x9;&#x9;c0.07,0,0.13,0.02,0.18,0.07c0.05,0.05,0.08,0.1,0.08,0.17c-0.02,0.58-0.18,1.09-0.5,1.52c-0.32,0.43-0.75,0.75-1.3,0.98&#xA;&#x9;&#x9;C99.39,32.62,98.77,32.73,98.08,32.73z"></path>
&#x9;<path class="st40" d="M159.71,67.12h-1.08c-0.16,0-0.28-0.13-0.28-0.28v-30.6c0-0.16,0.13-0.28,0.28-0.28h1.08&#xA;&#x9;&#x9;c0.16,0,0.28,0.13,0.28,0.28v30.6C160,66.99,159.87,67.12,159.71,67.12z"></path>
&#x9;<g>
&#x9;&#x9;<g>
&#x9;&#x9;&#x9;<g>
&#x9;&#x9;&#x9;&#x9;<path class="st36" d="M174.53,67.19c-0.06,0-0.12-0.02-0.16-0.06s-0.06-0.09-0.06-0.16v-5.72c0-0.06,0.02-0.12,0.06-0.16&#xA;&#x9;&#x9;&#x9;&#x9;&#x9;c0.04-0.04,0.09-0.06,0.16-0.06h1.18c0.06,0,0.12,0.02,0.16,0.06c0.04,0.04,0.06,0.09,0.06,0.16v5.72&#xA;&#x9;&#x9;&#x9;&#x9;&#x9;c0,0.06-0.02,0.12-0.06,0.16s-0.09,0.06-0.16,0.06H174.53z"></path>
&#x9;&#x9;&#x9;&#x9;<path class="st36" d="M177.31,67.19c-0.06,0-0.12-0.02-0.16-0.06s-0.06-0.09-0.06-0.16v-5.72c0-0.06,0.02-0.12,0.06-0.16&#xA;&#x9;&#x9;&#x9;&#x9;&#x9;c0.04-0.04,0.09-0.06,0.16-0.06h0.93c0.1,0,0.17,0.02,0.22,0.07c0.04,0.04,0.07,0.08,0.08,0.1l2.15,3.39v-3.33&#xA;&#x9;&#x9;&#x9;&#x9;&#x9;c0-0.06,0.02-0.12,0.06-0.16c0.04-0.04,0.09-0.06,0.16-0.06h1.06c0.06,0,0.12,0.02,0.16,0.06c0.04,0.04,0.06,0.09,0.06,0.16&#xA;&#x9;&#x9;&#x9;&#x9;&#x9;v5.72c0,0.06-0.02,0.11-0.06,0.15s-0.09,0.07-0.16,0.07h-0.94c-0.09,0-0.16-0.02-0.21-0.07s-0.07-0.08-0.08-0.1l-2.15-3.26v3.2&#xA;&#x9;&#x9;&#x9;&#x9;&#x9;c0,0.06-0.02,0.12-0.06,0.16s-0.09,0.06-0.16,0.06H177.31z"></path>
&#x9;&#x9;&#x9;&#x9;<path class="st36" d="M185.89,67.28c-0.56,0-1.04-0.09-1.44-0.28c-0.4-0.19-0.71-0.45-0.93-0.81c-0.22-0.35-0.34-0.79-0.37-1.3&#xA;&#x9;&#x9;&#x9;&#x9;&#x9;c-0.01-0.25-0.01-0.52-0.01-0.81s0-0.56,0.01-0.81c0.02-0.5,0.15-0.92,0.37-1.27s0.54-0.61,0.94-0.79&#xA;&#x9;&#x9;&#x9;&#x9;&#x9;c0.41-0.18,0.88-0.27,1.43-0.27c0.44,0,0.83,0.05,1.17,0.16c0.34,0.11,0.63,0.25,0.86,0.44c0.23,0.18,0.41,0.38,0.53,0.6&#xA;&#x9;&#x9;&#x9;&#x9;&#x9;c0.12,0.22,0.18,0.43,0.19,0.64c0,0.05-0.01,0.1-0.05,0.13s-0.08,0.05-0.14,0.05h-1.28c-0.07,0-0.11-0.01-0.15-0.03&#xA;&#x9;&#x9;&#x9;&#x9;&#x9;s-0.06-0.05-0.08-0.09c-0.04-0.09-0.1-0.18-0.18-0.28s-0.19-0.18-0.33-0.25c-0.14-0.07-0.32-0.11-0.54-0.11&#xA;&#x9;&#x9;&#x9;&#x9;&#x9;c-0.33,0-0.6,0.09-0.79,0.26c-0.19,0.18-0.29,0.46-0.31,0.84c-0.02,0.5-0.02,1.02,0,1.53c0.02,0.41,0.13,0.71,0.33,0.89&#xA;&#x9;&#x9;&#x9;&#x9;&#x9;c0.2,0.18,0.46,0.27,0.79,0.27c0.22,0,0.42-0.04,0.59-0.11s0.31-0.2,0.41-0.36c0.1-0.16,0.15-0.37,0.15-0.62v-0.17h-0.83&#xA;&#x9;&#x9;&#x9;&#x9;&#x9;c-0.06,0-0.12-0.02-0.16-0.07s-0.07-0.1-0.07-0.16v-0.65c0-0.06,0.02-0.12,0.07-0.16s0.1-0.07,0.16-0.07h2.22&#xA;&#x9;&#x9;&#x9;&#x9;&#x9;c0.06,0,0.12,0.02,0.16,0.07s0.06,0.1,0.06,0.16v1c0,0.5-0.12,0.94-0.34,1.29c-0.23,0.36-0.55,0.63-0.97,0.82&#xA;&#x9;&#x9;&#x9;&#x9;&#x9;C186.94,67.18,186.45,67.28,185.89,67.28z"></path>
&#x9;&#x9;&#x9;&#x9;<path class="st36" d="M189.84,67.19c-0.06,0-0.12-0.02-0.16-0.06s-0.06-0.09-0.06-0.16v-5.72c0-0.06,0.02-0.12,0.06-0.16&#xA;&#x9;&#x9;&#x9;&#x9;&#x9;c0.04-0.04,0.09-0.06,0.16-0.06h4.11c0.06,0,0.12,0.02,0.16,0.06c0.04,0.04,0.06,0.09,0.06,0.16v0.83&#xA;&#x9;&#x9;&#x9;&#x9;&#x9;c0,0.06-0.02,0.12-0.06,0.16c-0.04,0.04-0.09,0.06-0.16,0.06h-2.81v1.19h2.61c0.06,0,0.12,0.02,0.16,0.07s0.06,0.1,0.06,0.16&#xA;&#x9;&#x9;&#x9;&#x9;&#x9;v0.77c0,0.06-0.02,0.11-0.06,0.15c-0.04,0.04-0.09,0.07-0.16,0.07h-2.61v1.22h2.88c0.06,0,0.12,0.02,0.16,0.06&#xA;&#x9;&#x9;&#x9;&#x9;&#x9;c0.04,0.04,0.06,0.09,0.06,0.16v0.83c0,0.06-0.02,0.12-0.06,0.16c-0.04,0.04-0.09,0.06-0.16,0.06H189.84z"></path>
&#x9;&#x9;&#x9;&#x9;<path class="st36" d="M195.39,67.19c-0.06,0-0.12-0.02-0.16-0.06s-0.06-0.09-0.06-0.16v-5.72c0-0.06,0.02-0.12,0.06-0.16&#xA;&#x9;&#x9;&#x9;&#x9;&#x9;c0.04-0.04,0.09-0.06,0.16-0.06h0.93c0.1,0,0.17,0.02,0.22,0.07c0.04,0.04,0.07,0.08,0.08,0.1l2.15,3.39v-3.33&#xA;&#x9;&#x9;&#x9;&#x9;&#x9;c0-0.06,0.02-0.12,0.06-0.16c0.04-0.04,0.09-0.06,0.16-0.06h1.06c0.06,0,0.12,0.02,0.16,0.06c0.04,0.04,0.06,0.09,0.06,0.16&#xA;&#x9;&#x9;&#x9;&#x9;&#x9;v5.72c0,0.06-0.02,0.11-0.06,0.15s-0.09,0.07-0.16,0.07h-0.94c-0.09,0-0.16-0.02-0.21-0.07s-0.07-0.08-0.08-0.1l-2.15-3.26v3.2&#xA;&#x9;&#x9;&#x9;&#x9;&#x9;c0,0.06-0.02,0.12-0.06,0.16s-0.09,0.06-0.16,0.06H195.39z"></path>
&#x9;&#x9;&#x9;&#x9;<path class="st36" d="M201.65,67.19c-0.06,0-0.12-0.02-0.16-0.06s-0.06-0.09-0.06-0.16v-5.72c0-0.06,0.02-0.12,0.06-0.16&#xA;&#x9;&#x9;&#x9;&#x9;&#x9;c0.04-0.04,0.09-0.06,0.16-0.06h1.18c0.06,0,0.12,0.02,0.16,0.06c0.04,0.04,0.06,0.09,0.06,0.16v5.72&#xA;&#x9;&#x9;&#x9;&#x9;&#x9;c0,0.06-0.02,0.12-0.06,0.16s-0.09,0.06-0.16,0.06H201.65z"></path>
&#x9;&#x9;&#x9;&#x9;<path class="st36" d="M204.43,67.19c-0.06,0-0.12-0.02-0.16-0.06s-0.06-0.09-0.06-0.16v-5.72c0-0.06,0.02-0.12,0.06-0.16&#xA;&#x9;&#x9;&#x9;&#x9;&#x9;c0.04-0.04,0.09-0.06,0.16-0.06h4.11c0.06,0,0.12,0.02,0.16,0.06c0.04,0.04,0.06,0.09,0.06,0.16v0.83&#xA;&#x9;&#x9;&#x9;&#x9;&#x9;c0,0.06-0.02,0.12-0.06,0.16c-0.04,0.04-0.09,0.06-0.16,0.06h-2.81v1.19h2.61c0.06,0,0.12,0.02,0.16,0.07s0.06,0.1,0.06,0.16&#xA;&#x9;&#x9;&#x9;&#x9;&#x9;v0.77c0,0.06-0.02,0.11-0.06,0.15c-0.04,0.04-0.09,0.07-0.16,0.07h-2.61v1.22h2.88c0.06,0,0.12,0.02,0.16,0.06&#xA;&#x9;&#x9;&#x9;&#x9;&#x9;c0.04,0.04,0.06,0.09,0.06,0.16v0.83c0,0.06-0.02,0.12-0.06,0.16c-0.04,0.04-0.09,0.06-0.16,0.06H204.43z"></path>
&#x9;&#x9;&#x9;&#x9;<path class="st36" d="M209.98,67.19c-0.06,0-0.12-0.02-0.16-0.06s-0.06-0.09-0.06-0.16v-5.72c0-0.06,0.02-0.12,0.06-0.16&#xA;&#x9;&#x9;&#x9;&#x9;&#x9;c0.04-0.04,0.09-0.06,0.16-0.06h2.39c0.76,0,1.35,0.17,1.79,0.52c0.44,0.35,0.66,0.84,0.66,1.48c0,0.42-0.1,0.77-0.3,1.06&#xA;&#x9;&#x9;&#x9;&#x9;&#x9;c-0.2,0.29-0.47,0.5-0.8,0.65l1.21,2.16c0.02,0.04,0.03,0.07,0.03,0.1c0,0.05-0.02,0.09-0.06,0.13s-0.08,0.06-0.14,0.06h-1.16&#xA;&#x9;&#x9;&#x9;&#x9;&#x9;c-0.11,0-0.19-0.03-0.25-0.08s-0.09-0.11-0.11-0.15l-1-1.94h-0.91v1.95c0,0.06-0.02,0.12-0.06,0.16s-0.09,0.06-0.16,0.06H209.98&#xA;&#x9;&#x9;&#x9;&#x9;&#x9;z M211.34,63.77h1.02c0.28,0,0.48-0.07,0.62-0.2s0.21-0.32,0.21-0.55c0-0.23-0.07-0.41-0.2-0.55c-0.13-0.14-0.34-0.21-0.63-0.21&#xA;&#x9;&#x9;&#x9;&#x9;&#x9;h-1.02V63.77z"></path>
&#x9;&#x9;&#x9;&#x9;<path class="st36" d="M215.99,67.19c-0.06,0-0.12-0.02-0.16-0.06s-0.06-0.09-0.06-0.16v-5.72c0-0.06,0.02-0.12,0.06-0.16&#xA;&#x9;&#x9;&#x9;&#x9;&#x9;c0.04-0.04,0.09-0.06,0.16-0.06h1.18c0.06,0,0.12,0.02,0.16,0.06c0.04,0.04,0.06,0.09,0.06,0.16v5.72&#xA;&#x9;&#x9;&#x9;&#x9;&#x9;c0,0.06-0.02,0.12-0.06,0.16s-0.09,0.06-0.16,0.06H215.99z M216.03,60.59c-0.09,0-0.14-0.05-0.14-0.14&#xA;&#x9;&#x9;&#x9;&#x9;&#x9;c0-0.05,0.01-0.08,0.04-0.11l0.77-0.94c0.06-0.07,0.11-0.12,0.15-0.14s0.1-0.03,0.18-0.03h1.23c0.11,0,0.17,0.06,0.17,0.18&#xA;&#x9;&#x9;&#x9;&#x9;&#x9;c0,0.04-0.01,0.08-0.04,0.11l-1.17,0.96c-0.05,0.04-0.09,0.07-0.14,0.09s-0.11,0.03-0.19,0.03H216.03z"></path>
&#x9;&#x9;&#x9;&#x9;<path class="st36" d="M218.2,67.19c-0.05,0-0.09-0.02-0.13-0.06s-0.06-0.08-0.06-0.13c0-0.03,0-0.06,0.01-0.08l2.07-5.65&#xA;&#x9;&#x9;&#x9;&#x9;&#x9;c0.02-0.06,0.05-0.12,0.11-0.17s0.13-0.08,0.23-0.08h1.3c0.1,0,0.18,0.03,0.23,0.08c0.06,0.05,0.09,0.11,0.11,0.17l2.06,5.65&#xA;&#x9;&#x9;&#x9;&#x9;&#x9;c0.01,0.02,0.02,0.05,0.02,0.08c0,0.05-0.02,0.09-0.06,0.13s-0.08,0.06-0.14,0.06h-1.08c-0.09,0-0.15-0.02-0.2-0.07&#xA;&#x9;&#x9;&#x9;&#x9;&#x9;c-0.04-0.04-0.07-0.08-0.08-0.12l-0.34-0.9h-2.35l-0.33,0.9c-0.01,0.04-0.04,0.07-0.08,0.12s-0.11,0.07-0.21,0.07H218.2z&#xA;&#x9;&#x9;&#x9;&#x9;&#x9; M220.27,64.84h1.64l-0.83-2.32L220.27,64.84z"></path>
&#x9;&#x9;&#x9;&#x9;<path class="st36" d="M226.81,67.19c-0.06,0-0.12-0.02-0.16-0.06s-0.06-0.09-0.06-0.16v-5.72c0-0.06,0.02-0.12,0.06-0.16&#xA;&#x9;&#x9;&#x9;&#x9;&#x9;c0.04-0.04,0.09-0.06,0.16-0.06h1.18c0.06,0,0.12,0.02,0.16,0.06c0.04,0.04,0.06,0.09,0.06,0.16v5.72&#xA;&#x9;&#x9;&#x9;&#x9;&#x9;c0,0.06-0.02,0.12-0.06,0.16s-0.09,0.06-0.16,0.06H226.81z"></path>
&#x9;&#x9;&#x9;&#x9;<path class="st36" d="M229.59,67.19c-0.06,0-0.12-0.02-0.16-0.06s-0.06-0.09-0.06-0.16v-5.72c0-0.06,0.02-0.12,0.06-0.16&#xA;&#x9;&#x9;&#x9;&#x9;&#x9;c0.04-0.04,0.09-0.06,0.16-0.06h0.93c0.1,0,0.17,0.02,0.22,0.07c0.04,0.04,0.07,0.08,0.08,0.1l2.15,3.39v-3.33&#xA;&#x9;&#x9;&#x9;&#x9;&#x9;c0-0.06,0.02-0.12,0.06-0.16c0.04-0.04,0.09-0.06,0.16-0.06h1.06c0.06,0,0.12,0.02,0.16,0.06c0.04,0.04,0.06,0.09,0.06,0.16&#xA;&#x9;&#x9;&#x9;&#x9;&#x9;v5.72c0,0.06-0.02,0.11-0.06,0.15s-0.09,0.07-0.16,0.07h-0.94c-0.09,0-0.16-0.02-0.21-0.07s-0.07-0.08-0.08-0.1l-2.15-3.26v3.2&#xA;&#x9;&#x9;&#x9;&#x9;&#x9;c0,0.06-0.02,0.12-0.06,0.16s-0.09,0.06-0.16,0.06H229.59z"></path>
&#x9;&#x9;&#x9;&#x9;<path class="st36" d="M235.84,67.19c-0.06,0-0.12-0.02-0.16-0.06s-0.06-0.09-0.06-0.16v-5.72c0-0.06,0.02-0.12,0.06-0.16&#xA;&#x9;&#x9;&#x9;&#x9;&#x9;c0.04-0.04,0.09-0.06,0.16-0.06h4.04c0.06,0,0.12,0.02,0.16,0.06c0.04,0.04,0.07,0.09,0.07,0.16v0.89&#xA;&#x9;&#x9;&#x9;&#x9;&#x9;c0,0.06-0.02,0.12-0.07,0.16s-0.1,0.06-0.16,0.06h-2.71v1.29h2.53c0.06,0,0.12,0.02,0.16,0.07s0.07,0.1,0.07,0.16v0.88&#xA;&#x9;&#x9;&#x9;&#x9;&#x9;c0,0.06-0.02,0.11-0.07,0.15s-0.1,0.07-0.16,0.07h-2.53v1.99c0,0.06-0.02,0.12-0.06,0.16s-0.09,0.06-0.16,0.06H235.84z"></path>
&#x9;&#x9;&#x9;&#x9;<path class="st36" d="M243.5,67.28c-0.54,0-1.01-0.09-1.41-0.26c-0.4-0.18-0.71-0.44-0.93-0.8s-0.35-0.8-0.37-1.33&#xA;&#x9;&#x9;&#x9;&#x9;&#x9;c-0.01-0.25-0.01-0.5-0.01-0.76c0-0.25,0-0.51,0.01-0.77c0.02-0.53,0.15-0.97,0.37-1.33c0.23-0.36,0.54-0.63,0.94-0.81&#xA;&#x9;&#x9;&#x9;&#x9;&#x9;c0.4-0.18,0.87-0.27,1.4-0.27c0.53,0,0.99,0.09,1.39,0.27c0.4,0.18,0.72,0.45,0.95,0.81s0.35,0.81,0.37,1.33&#xA;&#x9;&#x9;&#x9;&#x9;&#x9;c0.01,0.26,0.02,0.51,0.02,0.77c0,0.25-0.01,0.5-0.02,0.76c-0.02,0.53-0.15,0.98-0.37,1.33s-0.53,0.62-0.93,0.8&#xA;&#x9;&#x9;&#x9;&#x9;&#x9;C244.51,67.19,244.04,67.28,243.5,67.28z M243.5,66.01c0.31,0,0.56-0.09,0.76-0.28c0.2-0.19,0.3-0.49,0.31-0.9&#xA;&#x9;&#x9;&#x9;&#x9;&#x9;c0.01-0.26,0.02-0.5,0.02-0.73c0-0.23-0.01-0.47-0.02-0.71c-0.01-0.28-0.06-0.5-0.15-0.67c-0.09-0.17-0.22-0.3-0.37-0.38&#xA;&#x9;&#x9;&#x9;&#x9;&#x9;c-0.16-0.08-0.34-0.12-0.55-0.12c-0.2,0-0.38,0.04-0.54,0.12c-0.16,0.08-0.28,0.21-0.38,0.38c-0.09,0.17-0.15,0.4-0.16,0.67&#xA;&#x9;&#x9;&#x9;&#x9;&#x9;c-0.01,0.25-0.01,0.48-0.01,0.71c0,0.23,0,0.47,0.01,0.73c0.02,0.41,0.12,0.71,0.32,0.9C242.94,65.92,243.19,66.01,243.5,66.01z&#xA;&#x9;&#x9;&#x9;&#x9;&#x9;"></path>
&#x9;&#x9;&#x9;&#x9;<path class="st36" d="M247.4,67.19c-0.06,0-0.12-0.02-0.16-0.06s-0.06-0.09-0.06-0.16v-5.72c0-0.06,0.02-0.12,0.06-0.16&#xA;&#x9;&#x9;&#x9;&#x9;&#x9;c0.04-0.04,0.09-0.06,0.16-0.06h2.39c0.76,0,1.35,0.17,1.79,0.52c0.44,0.35,0.66,0.84,0.66,1.48c0,0.42-0.1,0.77-0.3,1.06&#xA;&#x9;&#x9;&#x9;&#x9;&#x9;c-0.2,0.29-0.47,0.5-0.8,0.65l1.21,2.16c0.02,0.04,0.03,0.07,0.03,0.1c0,0.05-0.02,0.09-0.06,0.13s-0.08,0.06-0.14,0.06h-1.16&#xA;&#x9;&#x9;&#x9;&#x9;&#x9;c-0.11,0-0.19-0.03-0.25-0.08s-0.09-0.11-0.11-0.15l-1-1.94h-0.91v1.95c0,0.06-0.02,0.12-0.06,0.16s-0.09,0.06-0.16,0.06H247.4z&#xA;&#x9;&#x9;&#x9;&#x9;&#x9; M248.75,63.77h1.02c0.28,0,0.48-0.07,0.62-0.2s0.21-0.32,0.21-0.55c0-0.23-0.07-0.41-0.2-0.55c-0.13-0.14-0.34-0.21-0.63-0.21&#xA;&#x9;&#x9;&#x9;&#x9;&#x9;h-1.02V63.77z"></path>
&#x9;&#x9;&#x9;&#x9;<path class="st36" d="M253.41,67.19c-0.06,0-0.11-0.02-0.15-0.06s-0.07-0.09-0.07-0.16v-5.72c0-0.06,0.02-0.12,0.07-0.16&#xA;&#x9;&#x9;&#x9;&#x9;&#x9;c0.04-0.04,0.1-0.06,0.15-0.06h0.95c0.09,0,0.17,0.03,0.22,0.08s0.08,0.09,0.09,0.12l1.55,2.78l1.55-2.78&#xA;&#x9;&#x9;&#x9;&#x9;&#x9;c0.02-0.03,0.05-0.07,0.09-0.12s0.12-0.08,0.22-0.08h0.94c0.06,0,0.12,0.02,0.16,0.06c0.04,0.04,0.07,0.09,0.07,0.16v5.72&#xA;&#x9;&#x9;&#x9;&#x9;&#x9;c0,0.06-0.02,0.12-0.07,0.16s-0.1,0.06-0.16,0.06h-1.05c-0.06,0-0.12-0.02-0.16-0.06s-0.07-0.09-0.07-0.16v-3.3l-1,1.84&#xA;&#x9;&#x9;&#x9;&#x9;&#x9;c-0.02,0.05-0.06,0.1-0.11,0.14s-0.11,0.06-0.19,0.06h-0.46c-0.08,0-0.15-0.02-0.19-0.06s-0.08-0.09-0.11-0.14l-0.99-1.84v3.3&#xA;&#x9;&#x9;&#x9;&#x9;&#x9;c0,0.06-0.02,0.12-0.06,0.16s-0.09,0.06-0.16,0.06H253.41z"></path>
&#x9;&#x9;&#x9;&#x9;<path class="st36" d="M260.04,67.19c-0.05,0-0.09-0.02-0.13-0.06s-0.06-0.08-0.06-0.13c0-0.03,0-0.06,0.01-0.08l2.07-5.65&#xA;&#x9;&#x9;&#x9;&#x9;&#x9;c0.02-0.06,0.05-0.12,0.11-0.17s0.13-0.08,0.23-0.08h1.3c0.1,0,0.18,0.03,0.23,0.08c0.06,0.05,0.09,0.11,0.11,0.17l2.06,5.65&#xA;&#x9;&#x9;&#x9;&#x9;&#x9;c0.01,0.02,0.02,0.05,0.02,0.08c0,0.05-0.02,0.09-0.06,0.13s-0.08,0.06-0.14,0.06h-1.08c-0.09,0-0.15-0.02-0.2-0.07&#xA;&#x9;&#x9;&#x9;&#x9;&#x9;c-0.04-0.04-0.07-0.08-0.08-0.12l-0.34-0.9h-2.35l-0.33,0.9c-0.01,0.04-0.04,0.07-0.08,0.12s-0.11,0.07-0.21,0.07H260.04z&#xA;&#x9;&#x9;&#x9;&#x9;&#x9; M262.11,64.84h1.64l-0.83-2.32L262.11,64.84z M262.38,60.59c-0.09,0-0.14-0.05-0.14-0.14c0-0.05,0.01-0.08,0.04-0.11l0.77-0.94&#xA;&#x9;&#x9;&#x9;&#x9;&#x9;c0.06-0.07,0.11-0.12,0.15-0.14s0.1-0.03,0.18-0.03h1.23c0.11,0,0.17,0.06,0.17,0.18c0,0.04-0.01,0.08-0.04,0.11l-1.17,0.96&#xA;&#x9;&#x9;&#x9;&#x9;&#x9;c-0.05,0.04-0.09,0.07-0.14,0.09c-0.05,0.02-0.11,0.03-0.19,0.03H262.38z"></path>
&#x9;&#x9;&#x9;&#x9;<path class="st36" d="M268.2,67.19c-0.06,0-0.12-0.02-0.16-0.06c-0.04-0.04-0.06-0.09-0.06-0.16v-4.56h-1.57&#xA;&#x9;&#x9;&#x9;&#x9;&#x9;c-0.07,0-0.12-0.02-0.16-0.07s-0.06-0.1-0.06-0.15v-0.94c0-0.06,0.02-0.12,0.06-0.16c0.04-0.04,0.09-0.06,0.16-0.06h4.73&#xA;&#x9;&#x9;&#x9;&#x9;&#x9;c0.06,0,0.12,0.02,0.16,0.06c0.04,0.04,0.06,0.09,0.06,0.16v0.94c0,0.06-0.02,0.11-0.06,0.15s-0.09,0.07-0.16,0.07h-1.57v4.56&#xA;&#x9;&#x9;&#x9;&#x9;&#x9;c0,0.06-0.02,0.12-0.06,0.16s-0.09,0.06-0.16,0.06H268.2z"></path>
&#x9;&#x9;&#x9;&#x9;<path class="st36" d="M272.32,67.19c-0.06,0-0.12-0.02-0.16-0.06s-0.06-0.09-0.06-0.16v-5.72c0-0.06,0.02-0.12,0.06-0.16&#xA;&#x9;&#x9;&#x9;&#x9;&#x9;c0.04-0.04,0.09-0.06,0.16-0.06h1.18c0.06,0,0.12,0.02,0.16,0.06c0.04,0.04,0.06,0.09,0.06,0.16v5.72&#xA;&#x9;&#x9;&#x9;&#x9;&#x9;c0,0.06-0.02,0.12-0.06,0.16s-0.09,0.06-0.16,0.06H272.32z"></path>
&#x9;&#x9;&#x9;&#x9;<path class="st36" d="M277.4,67.28c-0.56,0-1.03-0.09-1.43-0.27c-0.4-0.18-0.7-0.45-0.92-0.8c-0.22-0.35-0.34-0.79-0.37-1.31&#xA;&#x9;&#x9;&#x9;&#x9;&#x9;c-0.01-0.24-0.01-0.5-0.01-0.77c0-0.28,0-0.54,0.01-0.79c0.02-0.51,0.15-0.94,0.37-1.3s0.53-0.62,0.93-0.81&#xA;&#x9;&#x9;&#x9;&#x9;&#x9;c0.4-0.19,0.87-0.28,1.42-0.28c0.39,0,0.75,0.05,1.07,0.15c0.33,0.1,0.62,0.24,0.86,0.42c0.25,0.18,0.44,0.41,0.58,0.67&#xA;&#x9;&#x9;&#x9;&#x9;&#x9;c0.14,0.26,0.21,0.56,0.21,0.88c0.01,0.05-0.01,0.1-0.05,0.13s-0.08,0.05-0.14,0.05h-1.19c-0.08,0-0.14-0.02-0.18-0.05&#xA;&#x9;&#x9;&#x9;&#x9;&#x9;s-0.08-0.09-0.11-0.18c-0.08-0.31-0.21-0.52-0.4-0.64c-0.18-0.11-0.41-0.17-0.68-0.17c-0.32,0-0.58,0.09-0.77,0.27&#xA;&#x9;&#x9;&#x9;&#x9;&#x9;c-0.19,0.18-0.29,0.48-0.31,0.89c-0.02,0.48-0.02,0.97,0,1.48c0.02,0.42,0.12,0.71,0.31,0.89c0.19,0.18,0.44,0.27,0.77,0.27&#xA;&#x9;&#x9;&#x9;&#x9;&#x9;c0.27,0,0.5-0.06,0.69-0.18c0.19-0.12,0.32-0.33,0.4-0.63c0.02-0.09,0.06-0.15,0.1-0.18c0.04-0.03,0.1-0.05,0.18-0.05h1.19&#xA;&#x9;&#x9;&#x9;&#x9;&#x9;c0.05,0,0.1,0.02,0.14,0.05c0.04,0.04,0.05,0.08,0.05,0.13c-0.01,0.33-0.08,0.62-0.21,0.88c-0.14,0.26-0.33,0.48-0.58,0.67&#xA;&#x9;&#x9;&#x9;&#x9;&#x9;c-0.25,0.18-0.53,0.33-0.86,0.42C278.15,67.23,277.79,67.28,277.4,67.28z"></path>
&#x9;&#x9;&#x9;&#x9;<path class="st36" d="M280.63,67.19c-0.05,0-0.09-0.02-0.13-0.06s-0.06-0.08-0.06-0.13c0-0.03,0-0.06,0.01-0.08l2.07-5.65&#xA;&#x9;&#x9;&#x9;&#x9;&#x9;c0.02-0.06,0.05-0.12,0.11-0.17s0.13-0.08,0.23-0.08h1.3c0.1,0,0.18,0.03,0.23,0.08c0.06,0.05,0.09,0.11,0.11,0.17l2.06,5.65&#xA;&#x9;&#x9;&#x9;&#x9;&#x9;c0.01,0.02,0.02,0.05,0.02,0.08c0,0.05-0.02,0.09-0.06,0.13s-0.08,0.06-0.14,0.06h-1.08c-0.09,0-0.15-0.02-0.2-0.07&#xA;&#x9;&#x9;&#x9;&#x9;&#x9;c-0.04-0.04-0.07-0.08-0.08-0.12l-0.34-0.9h-2.35l-0.33,0.9c-0.01,0.04-0.04,0.07-0.08,0.12s-0.11,0.07-0.21,0.07H280.63z&#xA;&#x9;&#x9;&#x9;&#x9;&#x9; M282.7,64.84h1.64l-0.83-2.32L282.7,64.84z"></path>
&#x9;&#x9;&#x9;</g>
&#x9;&#x9;</g>
&#x9;</g>
&#x9;<g>
&#x9;&#x9;<g>
&#x9;&#x9;&#x9;<path class="st36" d="M174.81,44.01c-0.34-0.74-0.5-1.66-0.5-2.64c0-0.99,0.17-1.9,0.5-2.64c0.73-1.56,2.25-2.38,4.89-2.38&#xA;&#x9;&#x9;&#x9;&#x9;c3.39,0,4.78,1.88,4.78,4.69v0.5c0,0.41-0.26,0.5-0.58,0.5h-6.31c0.17,1.45,1.02,1.82,2.36,1.82c0.88,0,1.73-0.15,2.72-0.71&#xA;&#x9;&#x9;&#x9;&#x9;c0.21-0.11,0.39-0.24,0.56-0.04l1.1,1.43c0.15,0.19,0.26,0.43,0.02,0.58c-1.47,0.91-2.72,1.27-4.58,1.27&#xA;&#x9;&#x9;&#x9;&#x9;C177.06,46.4,175.53,45.58,174.81,44.01z M181.34,40.2c-0.06-0.71-0.39-1.49-1.79-1.49c-1,0-1.62,0.45-1.86,1.49H181.34z"></path>
&#x9;&#x9;&#x9;<path class="st36" d="M186.85,36.53h8.19c0.21,0,0.37,0.17,0.37,0.37v1.67c0,0.21-0.17,0.37-0.37,0.37h-2.49v4.84h2.49&#xA;&#x9;&#x9;&#x9;&#x9;c0.21,0,0.37,0.17,0.37,0.37v1.68c0,0.2-0.17,0.37-0.37,0.37h-8.19c-0.2,0-0.37-0.17-0.37-0.37v-1.68c0-0.2,0.17-0.37,0.37-0.37&#xA;&#x9;&#x9;&#x9;&#x9;h2.49v-4.84h-2.49c-0.2,0-0.37-0.17-0.37-0.37v-1.67C186.48,36.7,186.65,36.53,186.85,36.53z"></path>
&#x9;&#x9;&#x9;<path class="st36" d="M197.84,36.53h8.19c0.21,0,0.37,0.17,0.37,0.37v1.77c0,0.21-0.17,0.37-0.37,0.37h-8.19&#xA;&#x9;&#x9;&#x9;&#x9;c-0.2,0-0.37-0.17-0.37-0.37v-1.77C197.46,36.7,197.63,36.53,197.84,36.53z M197.46,44.07c0-0.21,0.17-0.37,0.37-0.37h8.19&#xA;&#x9;&#x9;&#x9;&#x9;c0.21,0,0.37,0.17,0.37,0.37v1.77c0,0.2-0.17,0.37-0.37,0.37h-8.19c-0.2,0-0.37-0.17-0.37-0.37V44.07z M200.24,40.37&#xA;&#x9;&#x9;&#x9;&#x9;c0-0.32,0.26-0.58,0.58-0.58h2.23c0.32,0,0.58,0.26,0.58,0.58v1.99c0,0.32-0.26,0.58-0.58,0.58h-2.23&#xA;&#x9;&#x9;&#x9;&#x9;c-0.32,0-0.58-0.26-0.58-0.58V40.37z"></path>
&#x9;&#x9;</g>
&#x9;</g>
</g>
<g id="Capa_4">
</g>
<g id="Capa_3">
</g>
</svg>